<?xml version="1.0" encoding="utf-8"?>
<!-- Generator: Adobe Illustrator 16.0.0, SVG Export Plug-In . SVG Version: 6.00 Build 0)  -->
<!DOCTYPE svg PUBLIC "-//W3C//DTD SVG 1.1//EN" "http://www.w3.org/Graphics/SVG/1.1/DTD/svg11.dtd">
<svg version="1.1" id="Layer_1" xmlns="http://www.w3.org/2000/svg" xmlns:xlink="http://www.w3.org/1999/xlink" x="0px" y="0px"
	 width="616.394px" height="454.065px" viewBox="0 0 616.394 454.065" enable-background="new 0 0 616.394 454.065"
	 xml:space="preserve">
<g>
	<path fill-rule="evenodd" clip-rule="evenodd" fill="#FFFFFF" d="M2.874,388.279c0-128.801,0-257.601,0-386.401
		c100.8,0,201.6,0,302.4,0c-0.379,0.347-0.766,0.687-1.135,1.043c-1.532,1.48-1.602,3.65-0.169,5.114
		c1.414,1.447,3.732,1.429,5.121-0.04c1.398-1.478,1.303-3.694-0.232-5.121c-0.378-0.351-0.788-0.666-1.184-0.998
		c102.4,0,204.8,0,307.2,0c0,143.2,0,286.4,0,429.6c-0.14-0.016-0.279-0.026-0.42-0.033c-0.257-3.985-2.176-7.117-5.057-9.729
		c-2.278-2.063-4.965-3.468-7.779-4.645c-3.827-1.6-7.683-3.134-11.474-4.815c-1.591-0.706-3.196-1.534-4.535-2.626
		c-3.558-2.899-3.251-8.165,0.647-10.586c1.375-0.854,3.074-1.394,4.689-1.614c4.771-0.651,9.199,0.47,13.207,3.166
		c0.925,0.623,1.832,1.272,2.915,2.026c1.893-2.377,3.765-4.729,5.656-7.105c-0.349-0.406-0.525-0.668-0.755-0.872
		c-6.241-5.571-13.563-7.986-21.86-7.188c-4.871,0.469-9.315,2.174-12.985,5.561c-7.178,6.625-7.312,17.55-0.303,24.332
		c2.035,1.97,4.406,3.43,6.984,4.562c3.652,1.604,7.331,3.148,10.972,4.778c1.671,0.749,3.336,1.544,4.9,2.49
		c2.462,1.49,3.63,3.769,3.457,6.653c-0.187,3.085-1.753,5.327-4.594,6.449c-1.605,0.634-3.375,1.035-5.098,1.154
		c-6.146,0.425-11.377-1.956-16.133-5.617c-0.604-0.464-1.207-0.927-1.874-1.438c-2.276,2.646-4.4,5.114-6.689,7.775
		c0.591,0.472,1.036,0.804,1.455,1.166c6.171,5.347,13.42,8.02,21.502,8.152c5.59,0.092,10.978-1.109,15.613-4.512
		c3.958-2.905,6.637-6.646,7.136-11.689c0.141-0.009,0.281-0.021,0.421-0.033c0,5.6,0,11.2,0,16.8c-204,0-408,0-612,0
		c0-0.641,0-1.28,0-1.92c0.167-0.015,0.334-0.029,0.502-0.044c3.721,0,7.442,0,11.365,0c0-0.959,0-1.744,0-2.53
		c0-4.635,0.05-9.271-0.029-13.905c-0.024-1.455,0.321-2.614,1.308-3.688c1.079-1.174,2.024-2.471,3.028-3.714
		c1.542-1.909,3.086-3.817,4.77-5.9c5.804,10.086,11.49,19.965,17.189,29.867c2.137,0,4.131,0.01,6.125-0.002
		c2.016-0.013,4.039,0.056,6.396-0.061c-7.751-13.173-15.268-25.946-22.821-38.781c6.484-8.239,12.88-16.366,19.631-24.944
		c-1.1,0-1.62,0-2.141,0c-2.637,0-5.28,0.101-7.91-0.034c-1.843-0.095-3.055,0.467-4.219,1.98
		c-6.526,8.487-13.175,16.881-19.788,25.301c-0.364,0.464-0.784,0.883-1.54,1.725c0-2.132,0.005-3.705-0.001-5.278
		c-0.03-7.75-0.064-15.5-0.096-23.25c-0.216-0.182-0.434-0.523-0.648-0.522c-3.394,0.026-6.788,0.096-10.182,0.155
		C3.501,388.42,3.188,388.349,2.874,388.279z M133.418,403.656c0.424,0.631,0.924,1.224,1.259,1.899
		c2.025,4.076,3.866,8.251,6.039,12.246c5.842,10.736,11.819,21.4,17.748,32.09c0.421,0.759,0.89,1.491,1.286,2.152
		c3.946,0,7.742,0,11.557,0c0-21.233,0-42.307,0-63.473c-3.594,0-7.06,0-10.776,0c0,3.407,0,6.667,0,9.928
		c0,3.198-0.011,6.397,0.003,9.596c0.015,3.277-0.008,6.556,0.1,9.831c0.105,3.193,0.419,6.379,0.522,9.573
		c0.102,3.177,0.859,6.332,0.373,9.574c-7.847-16.757-17.562-32.434-26.14-48.502c-4.049,0-7.779,0-11.577,0
		c0,21.23,0,42.307,0,63.48c3.578,0,7.039,0,10.586,0c0.031-0.533,0.077-0.921,0.074-1.308c-0.132-15.103,0.576-30.226-1.14-45.289
		c-0.069-0.604,0.082-1.232,0.129-1.85L133.418,403.656z M260.021,221.929c-0.587,1.227-1.059,2.239-1.551,3.242
		c-5.279,10.76-10.552,21.521-15.851,32.271c-0.956,1.939-1.313,3.904-0.795,6.031c0.958,3.932,3.822,5.923,7.325,7.259
		c4.988,1.902,9.024-0.362,11.102-3.865c8.563-14.436,17.268-28.788,26.027-43.105c2.059-3.364,2.169-6.444,0.259-9.891
		c-5.191-9.365-10.175-18.846-15.372-28.208c-1.918-3.455-3.457-6.992-4.228-10.873c-0.373-1.877-0.912-3.722-1.361-5.586
		c-0.557-2.313-1.098-4.63-1.64-6.919c0.347-0.227,0.524-0.4,0.736-0.474c19.723-6.798,35.264-19.064,47.188-36.065
		c1.57-2.239,2.927-4.586,3.502-7.296c0.89-4.197-0.78-7.241-4.857-8.628c-3.681-1.252-6.896-0.411-9.62,2.412
		c-6.071,6.292-12.584,12.058-20.115,16.583c-8.946,5.375-18.514,8.169-29.041,6.996c-8.951-0.998-17.071-3.982-23.979-9.923
		c-5.948-5.115-10.145-11.499-13.159-18.644c-1.983-4.702-3.535-9.585-5.337-14.365c-0.531-1.408-1.054-2.896-1.939-4.079
		c-2.299-3.073-5.516-3.855-9.188-3.154c-3.633,0.693-5.193,3.25-5.658,6.572c-0.273,1.952-0.354,3.992-0.117,5.942
		c0.728,5.967,2.314,11.745,4.298,17.413c5.598,16,14.742,29.711,26.88,41.467c1.077,1.043,1.727,2.181,2.088,3.637
		c2.197,8.834,4.523,17.636,6.692,26.477c1.091,4.447,2.984,8.376,6.163,11.724c3.854,4.057,7.559,8.255,11.375,12.349
		C253.17,214.791,256.557,218.29,260.021,221.929z M357.536,217.817c0.75-0.793,1.357-1.425,1.955-2.067
		c6.314-6.792,12.626-13.587,18.944-20.377c2.393-2.571,3.966-5.546,4.815-8.973c1.787-7.208,3.904-14.34,5.469-21.594
		c0.963-4.467,2.999-7.897,6.19-11.191c13.99-14.443,22.899-31.597,26.293-51.505c0.435-2.55,0.395-5.105-0.333-7.604
		c-1.025-3.527-3.805-5.501-7.384-5.157c-3.538,0.34-6.175,2.09-7.579,5.425c-0.681,1.616-1.204,3.3-1.784,4.958
		c-2.224,6.346-4.772,12.528-8.339,18.277c-11.32,18.25-35.314,23.968-53.329,14.745c-6.245-3.198-11.792-7.339-16.99-11.999
		c-0.619-0.555-1.264-1.08-2.139-1.824c-1.085,6.582-4.939,11.324-8.526,16.233c10.817,12.313,23.701,21.139,39.035,26.375
		c-0.104,0.637-0.149,1.111-0.263,1.569c-1.019,4.108-2.114,8.198-3.05,12.325c-0.518,2.288-1.377,4.39-2.494,6.438
		c-5.247,9.609-10.429,19.254-15.678,28.863c-1.471,2.691-1.586,5.302,0.012,7.948c8.47,14.026,16.927,28.062,25.422,42.073
		c1.776,2.929,4.931,4.297,8.255,3.444c1.746-0.448,3.507-1.184,5.007-2.175c3.876-2.56,4.871-6.736,2.821-10.927
		c-2.176-4.45-4.38-8.888-6.562-13.335C364.07,231.168,360.843,224.571,357.536,217.817z M507.538,452.06
		c0.71,0.053,1.325,0.137,1.939,0.139c5.595,0.01,11.191,0.058,16.785-0.021c2.147-0.03,4.322-0.19,6.43-0.583
		c10.261-1.913,17.479-7.571,20.786-17.626c2.928-8.898,2.908-17.935,0.273-26.895c-1.697-5.775-5.05-10.479-10.178-13.78
		c-4.182-2.693-8.818-4.259-13.74-4.482c-7.179-0.326-14.375-0.271-21.564-0.363c-0.215-0.003-0.433,0.154-0.731,0.268
		C507.538,409.789,507.538,430.854,507.538,452.06z M412.297,388.529c0,21.213,0,42.358,0,63.501c3.758,0,7.389,0,11.138,0
		c0-5.603,0.029-11.033-0.021-16.464c-0.012-1.266,0.293-2.275,1.12-3.262c2.312-2.757,4.54-5.584,6.775-8.404
		c0.387-0.488,0.649-1.076,1.122-1.877c6.033,10.486,11.688,20.314,17.27,30.014c4.234,0,8.251,0,12.557,0
		c-7.672-13.036-15.196-25.82-22.736-38.633c6.421-8.233,12.757-16.356,19.088-24.483c0.035-0.045,0.016-0.148-0.005-0.218
		c-0.021-0.074-0.073-0.141-0.154-0.286c-3.231,0-6.508,0.079-9.778-0.034c-1.599-0.055-2.614,0.459-3.605,1.741
		c-6.503,8.415-13.092,16.764-19.672,25.119c-0.494,0.627-0.849,1.473-2.031,1.808c0-9.628,0-19.021,0-28.521
		C419.583,388.529,416.015,388.529,412.297,388.529z M77.849,442.619c0-6.407,0-12.448,0-18.729c7.601,0,15.079,0,22.649,0
		c0-3.305,0-6.369,0-9.665c-7.638,0-15.113,0-22.644,0c0-5.475,0-10.713,0-16.24c9.034,0,17.938,0,26.821,0c0-3.304,0-6.317,0-9.433
		c-12.795,0-25.46,0-38.369,0c0,21.268,0,42.396,0,63.476c13.345,0,26.329,0,39.332,0c0-3.192,0-6.207,0-9.409
		C96.354,442.619,87.189,442.619,77.849,442.619z M257.002,388.501c-6.924,21.271-13.784,42.344-20.687,63.549
		c4.079,0,7.801,0,11.56,0c1.657-5.708,3.276-11.285,4.913-16.921c7.176,0,14.182,0,21.374,0c1.659,5.69,3.303,11.328,4.951,16.979
		c4,0,7.817,0,11.944,0c-6.943-21.319-13.828-42.462-20.714-63.607C265.815,388.501,261.519,388.501,257.002,388.501z
		 M307.138,205.675c5.624-4.397,10.905-8.79,15.762-13.652c2.421-2.423,4.711-5.01,6.805-7.72c2.538-3.284,3.21-7.151,2.19-11.141
		c-1.328-5.198-4.635-8.726-9.861-10.116c-5.085-1.353-9.65-0.177-13.466,3.531c-0.445,0.433-0.732,1.027-1.301,1.849
		c-0.914-1.063-1.404-1.805-2.052-2.361c-4.504-3.863-9.636-4.655-14.974-2.303c-5.301,2.337-7.947,6.695-8.049,12.539
		c-0.074,4.24,1.783,7.726,4.312,10.913C292.275,194.486,299.517,200.118,307.138,205.675z M363.613,402.612
		c1.942-2.438,3.814-4.788,5.657-7.102c-5.276-5.705-14.688-9.261-23.428-7.96c-4.443,0.662-8.487,2.212-11.901,5.207
		c-7.584,6.654-7.707,18.319-0.117,24.967c1.895,1.658,4.156,2.989,6.43,4.104c3.651,1.79,7.47,3.233,11.182,4.903
		c1.742,0.784,3.518,1.585,5.071,2.673c4.702,3.291,4.225,10.082-0.932,12.604c-1.673,0.818-3.639,1.269-5.507,1.416
		c-6.053,0.477-11.244-1.843-15.97-5.41c-0.685-0.518-1.338-1.075-2.09-1.683c-2.292,2.676-4.446,5.189-6.583,7.683
		c7.657,7.516,18.841,10.908,28.928,8.914c3.651-0.722,7.026-2.082,10.032-4.327c9.271-6.927,9.831-22.376-1.161-28.91
		c-1.642-0.976-3.359-1.848-5.11-2.611c-3.73-1.628-7.534-3.091-11.25-4.75c-1.662-0.743-3.343-1.604-4.74-2.747
		c-3.563-2.914-3.208-8.17,0.73-10.571c1.384-0.844,3.085-1.373,4.702-1.588c5.051-0.67,9.658,0.661,13.805,3.608
		C362.069,401.535,362.783,402.03,363.613,402.612z M271.325,106.626c0.033-11.535-9.119-20.755-20.648-20.802
		c-11.563-0.047-20.786,9.072-20.838,20.6c-0.052,11.666,9.177,20.986,20.757,20.965
		C262.103,127.369,271.292,118.164,271.325,106.626z M366.326,128.616c10.72,0.043,19.449-8.56,19.512-19.229
		c0.063-10.629-8.631-19.417-19.286-19.496c-10.636-0.08-19.448,8.64-19.479,19.273C347.042,119.9,355.626,128.573,366.326,128.616z
		 M209.12,418.432c-0.17,0.016-0.34,0.032-0.51,0.048c-4.141-9.99-8.282-19.98-12.421-29.966c-4.107,0-7.992,0-12.139,0
		c0.377,0.888,0.653,1.609,0.984,2.305c5.731,12.041,11.487,24.071,17.177,36.133c0.489,1.036,0.771,2.27,0.784,3.416
		c0.073,6.476,0.035,12.951,0.035,19.427c0,0.764,0,1.528,0,2.251c3.989,0,7.627,0,11.451,0c0-0.937,0-1.723,0-2.509
		c0-6.396-0.044-12.792,0.038-19.187c0.016-1.225,0.318-2.541,0.842-3.647c5.642-11.907,11.355-23.78,17.043-35.665
		c0.361-0.756,0.67-1.537,1.095-2.517c-4.085,0-7.812,0-11.793,0C217.53,398.445,213.325,408.438,209.12,418.432z M249.86,222.846
		c-5.579-5.976-11.048-11.832-16.483-17.653c-0.449,0.235-0.676,0.32-0.865,0.457c-9.764,7.089-19.525,14.183-29.288,21.274
		c-2.024,1.47-2.967,3.529-3.08,5.955c-0.167,3.612,1.523,6.47,3.971,8.92c3.309,3.312,7.043,3.756,11.085,1.395
		c10.828-6.324,21.651-12.658,32.474-18.992C248.352,223.804,249.01,223.374,249.86,222.846z M367.578,218.863
		c0.377,0.287,0.6,0.495,0.855,0.645c10.745,6.294,21.476,12.616,32.271,18.825c1.095,0.63,2.602,0.88,3.882,0.792
		c4.342-0.295,6.79-3.201,8.518-6.818c1.492-3.125,1.029-7.71-2.784-10.375c-8.51-5.946-16.833-12.158-25.236-18.256
		c-0.632-0.458-1.297-0.872-2.051-1.375C377.857,207.846,372.762,213.307,367.578,218.863z M486.424,452.117
		c0-21.354,0-42.423,0-63.559c-3.799,0-7.436,0-11.05,0c-0.466,3.373-0.309,61.928,0.151,63.559
		C479.112,452.117,482.698,452.117,486.424,452.117z M299.333,414.14c3.846-1.946,6.937-4.403,9.113-7.865
		c3.186-5.067,3.87-10.592,2.446-16.325c-1.077-4.337-4.565-6.455-8.641-5.569c-3.086,0.671-4.835,3.177-4.738,6.789
		c0.082,3.069,1.995,5.252,5.04,5.74c0.67,0.107,1.345,0.184,2.033,0.275c0.034,5.919-3.502,9.296-8.02,11.987
		c0.722,1.322,1.327,2.439,1.94,3.552C298.736,413.138,298.983,413.542,299.333,414.14z M470.588,172.923
		c2.042,0.02,3.591-1.554,3.609-3.668c0.019-2.113-1.496-3.71-3.537-3.73c-2.059-0.02-3.577,1.526-3.593,3.658
		C467.052,171.327,468.536,172.903,470.588,172.923z M392.023,27.381c0.028-1.918-1.521-3.52-3.461-3.577
		c-1.97-0.059-3.554,1.404-3.642,3.361c-0.093,2.07,1.468,3.69,3.546,3.682C390.439,30.839,391.996,29.323,392.023,27.381z
		 M341.039,333.173c1.958-0.048,3.492-1.616,3.464-3.543c-0.027-1.903-1.642-3.495-3.559-3.509c-2.03-0.016-3.635,1.666-3.548,3.719
		C337.48,331.807,339.027,333.223,341.039,333.173z M276.399,329.623c-0.055-1.989-1.75-3.519-3.79-3.418
		c-1.933,0.096-3.384,1.66-3.339,3.602c0.046,2.016,1.71,3.531,3.759,3.425C274.938,333.131,276.452,331.509,276.399,329.623z
		 M276,9.134c-0.019-2.045-1.624-3.56-3.69-3.485c-1.913,0.07-3.459,1.663-3.437,3.541c0.022,1.876,1.608,3.472,3.496,3.518
		C274.401,12.757,276.019,11.165,276,9.134z M165.049,254.971c1.943-0.051,3.427-1.571,3.429-3.515
		c0.002-2.028-1.626-3.609-3.655-3.548c-1.891,0.058-3.467,1.663-3.472,3.537C161.347,253.423,163.025,255.023,165.049,254.971z
		 M452.228,251.342c0.013-2.021-1.64-3.679-3.607-3.619c-1.861,0.056-3.478,1.7-3.488,3.55c-0.012,1.994,1.648,3.614,3.659,3.572
		C450.737,254.804,452.215,253.296,452.228,251.342z M147.379,186.662c-0.024-1.975-1.54-3.476-3.514-3.481
		c-1.928-0.005-3.558,1.553-3.603,3.444c-0.047,2.002,1.633,3.637,3.685,3.583C145.945,190.156,147.404,188.648,147.379,186.662z
		 M224.536,31.158c1.945,0.064,3.545-1.429,3.622-3.379c0.082-2.081-1.481-3.746-3.513-3.743c-1.923,0.003-3.478,1.559-3.514,3.517
		C221.094,29.512,222.588,31.094,224.536,31.158z M456.467,98.872c-1.964-0.06-3.705,1.625-3.699,3.58
		c0.005,1.861,1.603,3.494,3.48,3.558c1.91,0.065,3.526-1.42,3.628-3.336C459.985,100.625,458.466,98.933,456.467,98.872z
		 M467.122,138.581c1.974-0.074,3.513-1.809,3.392-3.822c-0.116-1.938-1.675-3.357-3.627-3.302
		c-2.018,0.058-3.545,1.746-3.412,3.771C463.599,137.116,465.268,138.651,467.122,138.581z M151.059,216.616
		c-1.945-0.057-3.67,1.641-3.661,3.604c0.009,1.901,1.55,3.444,3.482,3.486c1.958,0.043,3.527-1.384,3.638-3.308
		C154.633,218.413,153.044,216.675,151.059,216.616z M142.96,173.163c1.889-0.009,3.458-1.567,3.506-3.481
		c0.051-2.049-1.517-3.66-3.548-3.644c-2.007,0.016-3.642,1.709-3.56,3.688C139.435,171.58,141.103,173.171,142.96,173.163z
		 M466.154,219.977c-0.023-1.969-1.494-3.472-3.433-3.507c-2.004-0.036-3.65,1.601-3.626,3.605c0.022,1.887,1.602,3.485,3.485,3.526
		C464.58,223.645,466.177,222.024,466.154,219.977z M150.97,122.44c1.936-0.045,3.45-1.574,3.454-3.488
		c0.004-1.989-1.675-3.614-3.674-3.557c-1.921,0.055-3.422,1.604-3.426,3.538C147.318,120.993,148.875,122.489,150.97,122.44z
		 M327.22,6.433c0.018-1.86-1.559-3.494-3.446-3.573c-2.021-0.084-3.648,1.489-3.658,3.536c-0.009,1.931,1.478,3.509,3.383,3.592
		C325.444,10.072,327.203,8.393,327.22,6.433z M376.743,19.643c0.04-1.915-1.492-3.524-3.436-3.607
		c-1.942-0.083-3.569,1.393-3.676,3.335c-0.11,2.041,1.468,3.699,3.53,3.706C375.116,23.085,376.703,21.563,376.743,19.643z
		 M402.882,33.108c-1.921-0.022-3.494,1.481-3.565,3.408c-0.075,2.023,1.515,3.714,3.505,3.729c1.878,0.013,3.519-1.549,3.6-3.428
		C406.507,34.838,404.878,33.131,402.882,33.108z M466.08,118.499c0.034-2.011-1.611-3.685-3.594-3.656
		c-1.838,0.026-3.482,1.666-3.533,3.521c-0.055,1.968,1.603,3.6,3.64,3.583C464.551,121.931,466.046,120.453,466.08,118.499z
		 M143.813,148.896c-1.978-0.001-3.645,1.709-3.583,3.676c0.06,1.889,1.659,3.421,3.568,3.419c2.041-0.002,3.61-1.613,3.554-3.647
		C147.3,150.432,145.725,148.897,143.813,148.896z M452.106,87.48c0.173-1.945-1.413-3.748-3.396-3.858
		c-1.876-0.104-3.569,1.385-3.719,3.271c-0.152,1.917,1.244,3.614,3.133,3.81C450.138,90.911,451.93,89.46,452.106,87.48z
		 M221.354,311.277c-0.064,1.858,1.485,3.506,3.383,3.599c2.099,0.103,3.692-1.352,3.742-3.416c0.047-1.909-1.424-3.531-3.324-3.664
		C223.232,307.661,221.421,309.319,221.354,311.277z M292.877,6.379c-0.036-1.957-1.539-3.469-3.458-3.481
		c-1.979-0.012-3.634,1.681-3.579,3.66c0.054,1.914,1.617,3.456,3.518,3.47C291.394,10.043,292.916,8.465,292.877,6.379z M344.118,9
		c-0.028-1.938-1.601-3.493-3.536-3.5c-2.004-0.007-3.684,1.739-3.581,3.722c0.098,1.902,1.745,3.395,3.687,3.342
		C342.659,12.511,344.147,10.964,344.118,9z M255.947,10.052c-1.912-0.03-3.476,1.471-3.547,3.402
		c-0.076,2.054,1.459,3.708,3.464,3.733c1.984,0.024,3.623-1.643,3.586-3.65C259.417,11.631,257.859,10.082,255.947,10.052z
		 M156.974,106.489c1.917,0.009,3.528-1.561,3.573-3.479c0.047-2.002-1.656-3.706-3.65-3.651c-1.934,0.053-3.403,1.619-3.385,3.608
		C153.53,104.981,155.002,106.479,156.974,106.489z M243.43,19.753c-0.016-1.97-1.529-3.483-3.5-3.498
		c-2.035-0.016-3.669,1.664-3.585,3.685c0.079,1.903,1.752,3.465,3.651,3.409C241.921,23.292,243.445,21.696,243.43,19.753z
		 M177.632,73.35c0.037-2.025-1.572-3.672-3.568-3.652c-1.877,0.019-3.492,1.606-3.541,3.481c-0.052,1.977,1.603,3.633,3.611,3.614
		C176.091,76.773,177.597,75.292,177.632,73.35z M164.71,91.166c2.036,0.025,3.676-1.593,3.63-3.583
		c-0.042-1.858-1.684-3.509-3.513-3.535c-1.98-0.027-3.619,1.639-3.592,3.653C161.262,89.644,162.764,91.142,164.71,91.166z
		 M157.125,232.682c-2.044,0.001-3.597,1.601-3.536,3.643c0.057,1.909,1.636,3.43,3.55,3.417c1.897-0.014,3.506-1.56,3.576-3.435
		C160.788,234.347,159.137,232.681,157.125,232.682z M442.954,265.593c-0.058-1.865-1.696-3.468-3.562-3.479
		c-2.007-0.012-3.609,1.636-3.563,3.661c0.048,2.027,1.728,3.579,3.743,3.458C441.455,269.121,443.01,267.446,442.954,265.593z
		 M188.64,279.025c-0.046-1.926-1.596-3.456-3.516-3.471c-1.955-0.015-3.667,1.728-3.608,3.672c0.056,1.87,1.686,3.449,3.569,3.458
		C187.104,282.693,188.689,281.062,188.64,279.025z M210.612,305.589c2.009-0.03,3.579-1.701,3.496-3.721
		c-0.079-1.915-1.649-3.396-3.582-3.378c-2.002,0.02-3.613,1.713-3.519,3.699C207.096,304.072,208.735,305.618,210.612,305.589z
		 M388.744,314.839c1.971,0.014,3.464-1.474,3.494-3.48c0.03-2.001-1.409-3.564-3.354-3.643c-1.98-0.079-3.716,1.625-3.686,3.618
		C385.229,313.258,386.815,314.827,388.744,314.839z M357.368,321.646c-1.938,0.075-3.602,1.918-3.455,3.825
		c0.146,1.901,1.766,3.348,3.688,3.295c2.047-0.056,3.507-1.675,3.395-3.763C360.894,323.115,359.228,321.575,357.368,321.646z
		 M146.644,200.102c-1.952-0.056-3.539,1.38-3.646,3.301c-0.114,2.022,1.421,3.737,3.418,3.817c1.935,0.078,3.692-1.63,3.689-3.585
		C150.102,201.738,148.553,200.158,146.644,200.102z M310.474,333.321c0.051-1.85-1.521-3.521-3.399-3.614
		c-2.054-0.103-3.683,1.408-3.726,3.456c-0.042,2.007,1.599,3.696,3.57,3.675C308.738,336.817,310.423,335.149,310.474,333.321z
		 M473.276,186.409c-0.053-1.897-1.657-3.481-3.529-3.483c-1.942-0.002-3.653,1.761-3.59,3.701c0.065,1.993,1.779,3.531,3.806,3.417
		C471.894,189.935,473.33,188.36,473.276,186.409z M150.005,135.426c-0.046-1.905-1.613-3.444-3.525-3.461
		c-2.027-0.018-3.567,1.576-3.527,3.649c0.038,1.94,1.554,3.454,3.478,3.47C148.421,139.101,150.054,137.431,150.005,135.426z
		 M357.17,9.96c-2.034-0.009-3.489,1.395-3.529,3.406c-0.042,2.068,1.571,3.694,3.604,3.631c1.937-0.06,3.457-1.646,3.442-3.589
		C360.673,11.439,359.173,9.969,357.17,9.96z M456.572,239.542c1.974-0.033,3.496-1.567,3.486-3.514
		c-0.01-1.918-1.587-3.521-3.5-3.556c-2.014-0.038-3.633,1.634-3.569,3.687C453.049,238.138,454.572,239.576,456.572,239.542z
		 M428.01,63.086c1.895,0.173,3.64-1.247,3.882-3.157c0.236-1.868-1.21-3.667-3.108-3.868c-2.087-0.222-3.845,1.198-3.988,3.22
		C424.66,61.205,426.102,62.912,428.01,63.086z M473.267,151.984c0.039-1.977-1.65-3.681-3.619-3.651
		c-1.864,0.028-3.489,1.649-3.527,3.52c-0.039,1.881,1.498,3.521,3.394,3.622C471.498,155.58,473.229,153.97,473.267,151.984z
		 M256.273,328.799c2.004-0.01,3.477-1.481,3.48-3.479c0.004-1.971-1.501-3.558-3.423-3.607c-1.975-0.052-3.69,1.68-3.639,3.673
		C252.744,327.354,254.27,328.809,256.273,328.799z M197.106,51.324c1.925-0.06,3.455-1.622,3.458-3.529
		c0.002-1.97-1.733-3.663-3.68-3.592c-1.99,0.073-3.564,1.816-3.441,3.811C193.559,49.908,195.192,51.383,197.106,51.324z
		 M419.995,291.048c-0.047-1.9-1.634-3.473-3.523-3.492c-1.98-0.02-3.653,1.68-3.604,3.661c0.051,1.985,1.782,3.574,3.774,3.463
		C418.555,294.574,420.042,292.962,419.995,291.048z M428.559,282.591c1.905-0.003,3.486-1.588,3.514-3.521
		c0.028-2.079-1.569-3.658-3.635-3.593c-1.958,0.062-3.458,1.636-3.42,3.59C425.054,280.981,426.674,282.593,428.559,282.591z
		 M403.069,298.441c-1.983,0.028-3.492,1.535-3.494,3.491c-0.003,1.913,1.569,3.518,3.486,3.559
		c2.027,0.044,3.623-1.595,3.572-3.668C406.584,299.841,405.08,298.414,403.069,298.441z M369.993,319.042
		c-0.024,2.006,1.408,3.506,3.396,3.553c1.978,0.047,3.57-1.402,3.662-3.333c0.096-2.007-1.543-3.715-3.566-3.713
		C371.516,315.549,370.018,317.048,369.993,319.042z M177.855,265.722c-0.052-1.931-1.641-3.462-3.583-3.454
		c-2.041,0.009-3.579,1.67-3.476,3.755c0.097,1.97,1.65,3.367,3.659,3.292C176.414,269.242,177.907,267.664,177.855,265.722z
		 M289.693,335.932c1.904,0.04,3.501-1.47,3.587-3.392c0.091-2.029-1.477-3.722-3.473-3.749c-1.877-0.025-3.532,1.517-3.643,3.396
		C286.05,334.11,287.727,335.89,289.693,335.932z M210.395,40.531c1.916-0.063,3.479-1.69,3.457-3.596
		c-0.024-2.031-1.687-3.552-3.775-3.454c-1.984,0.093-3.361,1.626-3.282,3.653C206.872,39.092,208.464,40.595,210.395,40.531z
		 M467.035,199.965c-2.025,0.022-3.438,1.455-3.441,3.485c-0.002,2.042,1.407,3.493,3.416,3.517
		c2.076,0.025,3.697-1.588,3.628-3.611C470.571,201.417,469.005,199.942,467.035,199.965z M439.141,69.306
		c-1.933,0.007-3.5,1.56-3.525,3.491c-0.026,2.042,1.6,3.614,3.676,3.552c1.995-0.06,3.372-1.536,3.345-3.584
		C442.609,70.771,441.122,69.299,439.141,69.306z M200.735,291.269c0.014-2.002-1.43-3.516-3.402-3.563
		c-1.937-0.047-3.561,1.463-3.636,3.381c-0.08,2.045,1.507,3.673,3.572,3.662C199.26,294.74,200.721,293.273,200.735,291.269z
		 M243.794,319.092c-0.033-1.928-1.596-3.428-3.568-3.426c-1.966,0.002-3.52,1.506-3.551,3.439
		c-0.033,2.021,1.626,3.623,3.683,3.555C242.313,322.595,243.828,321.023,243.794,319.092z M188.462,59.917
		c-0.014-1.894-1.628-3.512-3.525-3.533c-2.057-0.023-3.634,1.599-3.569,3.671c0.062,1.995,1.548,3.382,3.589,3.35
		C186.924,63.374,188.477,61.83,188.462,59.917z M327.487,332.315c-0.01-1.979-1.512-3.505-3.464-3.521
		c-1.959-0.017-3.477,1.479-3.519,3.466c-0.044,2.07,1.565,3.713,3.58,3.656C326.011,335.862,327.497,334.29,327.487,332.315z
		 M416.188,50.922c2.016-0.001,3.496-1.435,3.534-3.422c0.039-2.038-1.614-3.67-3.646-3.601c-1.975,0.068-3.391,1.581-3.363,3.594
		C412.742,49.546,414.136,50.923,416.188,50.922z"/>
	<path fill-rule="evenodd" clip-rule="evenodd" fill="#C62336" d="M2.874,388.279c0.313,0.07,0.627,0.142,0.941,0.213
		c0.77,0.091,1.539,0.244,2.311,0.261c2.839,0.061,5.68,0.075,8.519,0.106c0.032,7.75,0.066,15.5,0.096,23.25
		c0.006,1.573,0.001,3.146,0.001,5.278c0.755-0.842,1.176-1.261,1.54-1.725c6.613-8.42,13.262-16.813,19.788-25.301
		c1.164-1.514,2.376-2.075,4.219-1.98c2.63,0.135,5.273,0.034,7.91,0.034c0.521,0,1.041,0,2.141,0
		c-6.751,8.578-13.147,16.705-19.631,24.944c7.553,12.835,15.069,25.608,22.821,38.781c-2.357,0.116-4.38,0.048-6.396,0.061
		c-1.994,0.012-3.988,0.002-6.125,0.002c-5.699-9.902-11.385-19.781-17.189-29.867c-1.684,2.083-3.228,3.991-4.77,5.9
		c-1.004,1.243-1.949,2.54-3.028,3.714c-0.987,1.074-1.333,2.233-1.308,3.688c0.079,4.634,0.029,9.271,0.029,13.905
		c0,0.786,0,1.571,0,2.53c-3.923,0-7.645,0-11.365,0c0.003-6.312,0.009-12.622,0.009-18.933c0.001-13.739,0.01-27.479-0.021-41.219
		c-0.002-0.896-0.319-1.79-0.49-2.685C2.874,388.918,2.874,388.598,2.874,388.279z"/>
	<path fill-rule="evenodd" clip-rule="evenodd" fill="#C8293B" d="M307.674,1.878c0.396,0.332,0.806,0.647,1.184,0.998
		c1.535,1.426,1.631,3.643,0.232,5.121c-1.388,1.468-3.707,1.486-5.121,0.04c-1.432-1.464-1.363-3.634,0.169-5.114
		c0.37-0.357,0.756-0.696,1.135-1.043C306.074,1.878,306.875,1.878,307.674,1.878z"/>
	<path fill-rule="evenodd" clip-rule="evenodd" fill="#DB6E7A" d="M2.874,389.239c0.171,0.895,0.488,1.789,0.49,2.685
		c0.031,13.739,0.023,27.479,0.021,41.219c0,6.311-0.006,12.621-0.009,18.933c-0.168,0.015-0.335,0.029-0.502,0.044
		C2.874,431.159,2.874,410.199,2.874,389.239z"/>
	<path fill-rule="evenodd" clip-rule="evenodd" fill="#E8A9B0" d="M614.875,437.239c-0.14,0.013-0.28,0.024-0.421,0.033
		c0-1.942,0.001-3.885,0.001-5.827c0.141,0.007,0.28,0.018,0.42,0.033C614.875,433.398,614.875,435.319,614.875,437.239z"/>
	<path fill-rule="evenodd" clip-rule="evenodd" fill="#6B823C" d="M260.021,221.929c-3.464-3.639-6.851-7.138-10.171-10.7
		c-3.816-4.093-7.521-8.292-11.375-12.349c-3.179-3.347-5.072-7.277-6.163-11.724c-2.169-8.841-4.496-17.643-6.692-26.477
		c-0.362-1.457-1.011-2.594-2.088-3.637c-12.139-11.756-21.282-25.467-26.88-41.467c-1.983-5.668-3.57-11.446-4.298-17.413
		c-0.238-1.951-0.156-3.991,0.117-5.942c0.464-3.322,2.025-5.878,5.658-6.572c3.671-0.701,6.889,0.081,9.188,3.154
		c0.885,1.183,1.408,2.67,1.939,4.079c1.803,4.78,3.354,9.663,5.337,14.365c3.014,7.145,7.211,13.528,13.159,18.644
		c6.908,5.941,15.028,8.925,23.979,9.923c10.527,1.173,20.095-1.621,29.041-6.996c7.531-4.524,14.043-10.291,20.115-16.583
		c2.725-2.823,5.939-3.665,9.62-2.412c4.077,1.387,5.747,4.431,4.857,8.628c-0.575,2.71-1.932,5.057-3.502,7.296
		c-11.924,17.001-27.466,29.267-47.188,36.065c-0.212,0.073-0.39,0.247-0.736,0.474c0.542,2.289,1.083,4.606,1.64,6.919
		c0.449,1.864,0.988,3.708,1.361,5.586c0.771,3.881,2.31,7.418,4.228,10.873c5.197,9.362,10.181,18.843,15.372,28.208
		c1.911,3.446,1.8,6.526-0.259,9.891c-8.76,14.317-17.465,28.67-26.027,43.105c-2.078,3.503-6.114,5.768-11.102,3.865
		c-3.503-1.336-6.367-3.327-7.325-7.259c-0.518-2.127-0.161-4.092,0.795-6.031c5.299-10.75,10.572-21.512,15.851-32.271
		C258.962,224.168,259.434,223.156,260.021,221.929z"/>
	<path fill-rule="evenodd" clip-rule="evenodd" fill="#6B823C" d="M357.536,217.817c3.308,6.753,6.534,13.351,9.77,19.945
		c2.182,4.447,4.386,8.885,6.562,13.335c2.05,4.19,1.055,8.367-2.821,10.927c-1.5,0.991-3.261,1.727-5.007,2.175
		c-3.324,0.853-6.479-0.516-8.255-3.444c-8.495-14.012-16.952-28.047-25.422-42.073c-1.598-2.646-1.482-5.257-0.012-7.948
		c5.249-9.608,10.431-19.253,15.678-28.863c1.117-2.048,1.977-4.15,2.494-6.438c0.936-4.126,2.031-8.217,3.05-12.325
		c0.113-0.458,0.158-0.933,0.263-1.569c-15.334-5.236-28.218-14.061-39.035-26.375c3.587-4.909,7.441-9.651,8.526-16.233
		c0.875,0.744,1.52,1.269,2.139,1.824c5.198,4.659,10.745,8.801,16.99,11.999c18.015,9.223,42.009,3.505,53.329-14.745
		c3.566-5.749,6.115-11.931,8.339-18.277c0.58-1.658,1.104-3.342,1.784-4.958c1.404-3.335,4.041-5.085,7.579-5.425
		c3.579-0.344,6.358,1.63,7.384,5.157c0.728,2.499,0.768,5.054,0.333,7.604c-3.394,19.908-12.303,37.062-26.293,51.505
		c-3.191,3.294-5.228,6.725-6.19,11.191c-1.564,7.254-3.682,14.387-5.469,21.594c-0.85,3.427-2.423,6.402-4.815,8.973
		c-6.318,6.79-12.63,13.585-18.944,20.377C358.893,216.392,358.286,217.024,357.536,217.817z"/>
	<path fill-rule="evenodd" clip-rule="evenodd" fill="#C62235" d="M133.459,403.605c-0.048,0.617-0.198,1.246-0.129,1.85
		c1.716,15.063,1.008,30.187,1.14,45.289c0.003,0.387-0.042,0.774-0.074,1.308c-3.547,0-7.008,0-10.586,0c0-21.174,0-42.25,0-63.48
		c3.798,0,7.528,0,11.577,0c8.578,16.068,18.293,31.745,26.14,48.502c0.486-3.242-0.271-6.397-0.373-9.574
		c-0.103-3.194-0.417-6.38-0.522-9.573c-0.107-3.275-0.085-6.554-0.1-9.831c-0.014-3.198-0.003-6.397-0.003-9.596
		c0-3.261,0-6.521,0-9.928c3.717,0,7.182,0,10.776,0c0,21.166,0,42.239,0,63.473c-3.815,0-7.611,0-11.557,0
		c-0.396-0.661-0.865-1.394-1.286-2.152c-5.929-10.689-11.906-21.354-17.748-32.09c-2.173-3.995-4.014-8.17-6.039-12.246
		c-0.335-0.676-0.835-1.269-1.259-1.899c-0.066-0.117-0.133-0.233-0.199-0.35c-0.03,0.07-0.061,0.142-0.091,0.212
		C133.239,403.547,133.349,403.576,133.459,403.605z"/>
	<path fill-rule="evenodd" clip-rule="evenodd" fill="#C62336" d="M507.538,452.06c0-21.206,0-42.271,0-63.345
		c0.299-0.113,0.517-0.271,0.731-0.268c7.189,0.093,14.386,0.037,21.564,0.363c4.922,0.224,9.559,1.789,13.74,4.482
		c5.128,3.302,8.48,8.005,10.178,13.78c2.635,8.96,2.654,17.996-0.273,26.895c-3.308,10.055-10.525,15.713-20.786,17.626
		c-2.107,0.393-4.282,0.553-6.43,0.583c-5.594,0.079-11.19,0.031-16.785,0.021C508.863,452.197,508.248,452.113,507.538,452.06z
		 M519,442.938c2.663,0,5.143,0.171,7.592-0.031c8.302-0.688,13.801-5.06,16.029-12.862c1.858-6.509,1.85-13.12,0.063-19.643
		c-1.503-5.486-4.874-9.449-10.351-11.407c-4.309-1.54-8.76-1.279-13.334-1.18C519,412.904,519,427.808,519,442.938z"/>
	<path fill-rule="evenodd" clip-rule="evenodd" fill="#C62235" d="M412.297,388.529c3.718,0,7.286,0,11.065,0
		c0,9.501,0,18.894,0,28.521c1.183-0.335,1.537-1.181,2.031-1.808c6.58-8.355,13.169-16.704,19.672-25.119
		c0.991-1.282,2.007-1.796,3.605-1.741c3.271,0.113,6.547,0.034,9.778,0.034c0.081,0.146,0.133,0.212,0.154,0.286
		c0.021,0.069,0.04,0.173,0.005,0.218c-6.331,8.127-12.667,16.25-19.088,24.483c7.54,12.813,15.064,25.597,22.736,38.633
		c-4.306,0-8.322,0-12.557,0c-5.581-9.699-11.236-19.527-17.27-30.014c-0.473,0.801-0.735,1.389-1.122,1.877
		c-2.235,2.82-4.464,5.647-6.775,8.404c-0.827,0.986-1.132,1.996-1.12,3.262c0.051,5.431,0.021,10.861,0.021,16.464
		c-3.749,0-7.38,0-11.138,0C412.297,430.887,412.297,409.742,412.297,388.529z"/>
	<path fill-rule="evenodd" clip-rule="evenodd" fill="#C62436" d="M77.849,442.619c9.34,0,18.504,0,27.791,0
		c0,3.202,0,6.217,0,9.409c-13.003,0-25.987,0-39.332,0c-0.001-21.08,0-42.208,0-63.476c12.908,0,25.574,0,38.369,0
		c0,3.115,0,6.129,0,9.433c-8.883,0-17.787,0-26.821,0c0,5.527,0,10.766,0,16.24c7.53,0,15.006,0,22.644,0c0,3.296,0,6.36,0,9.665
		c-7.571,0-15.048,0-22.649,0C77.849,430.17,77.849,436.211,77.849,442.619z"/>
	<path fill-rule="evenodd" clip-rule="evenodd" fill="#C62336" d="M257.002,388.501c4.517,0,8.813,0,13.34,0
		c6.886,21.146,13.771,42.288,20.714,63.607c-4.127,0-7.944,0-11.944,0c-1.647-5.651-3.292-11.289-4.951-16.979
		c-7.192,0-14.198,0-21.374,0c-1.636,5.636-3.255,11.213-4.913,16.921c-3.759,0-7.481,0-11.56,0
		C243.219,430.845,250.079,409.772,257.002,388.501z M255.562,426.022c5.459,0,10.625,0,15.95,0
		c-2.632-9.493-5.226-18.849-7.826-28.202c-0.013-0.046-0.127-0.074-0.199-0.089c-0.069-0.016-0.145-0.004-0.139-0.004
		C260.764,407.115,258.188,416.48,255.562,426.022z"/>
	<path fill-rule="evenodd" clip-rule="evenodd" fill="#C52134" d="M307.138,205.675c-7.621-5.557-14.863-11.189-20.634-18.462
		c-2.529-3.187-4.386-6.673-4.312-10.913c0.102-5.844,2.748-10.202,8.049-12.539c5.337-2.353,10.47-1.56,14.974,2.303
		c0.648,0.556,1.139,1.298,2.052,2.361c0.569-0.821,0.856-1.416,1.301-1.849c3.815-3.708,8.381-4.883,13.466-3.531
		c5.227,1.39,8.533,4.918,9.861,10.116c1.02,3.99,0.348,7.857-2.19,11.141c-2.094,2.71-4.384,5.297-6.805,7.72
		C318.043,196.886,312.762,201.278,307.138,205.675z"/>
	<path fill-rule="evenodd" clip-rule="evenodd" fill="#C62336" d="M363.613,402.612c-0.83-0.582-1.544-1.077-2.252-1.581
		c-4.146-2.947-8.754-4.278-13.805-3.608c-1.617,0.215-3.318,0.744-4.702,1.588c-3.938,2.401-4.293,7.657-0.73,10.571
		c1.397,1.144,3.078,2.004,4.74,2.747c3.716,1.659,7.52,3.122,11.25,4.75c1.751,0.764,3.469,1.636,5.11,2.611
		c10.992,6.534,10.433,21.983,1.161,28.91c-3.006,2.245-6.381,3.605-10.032,4.327c-10.087,1.994-21.271-1.398-28.928-8.914
		c2.137-2.493,4.291-5.007,6.583-7.683c0.752,0.607,1.405,1.165,2.09,1.683c4.726,3.567,9.917,5.887,15.97,5.41
		c1.868-0.147,3.834-0.598,5.507-1.416c5.156-2.521,5.634-9.313,0.932-12.604c-1.554-1.088-3.329-1.889-5.071-2.673
		c-3.712-1.67-7.53-3.113-11.182-4.903c-2.273-1.114-4.535-2.445-6.43-4.104c-7.59-6.647-7.467-18.313,0.117-24.967
		c3.414-2.995,7.458-4.545,11.901-5.207c8.74-1.301,18.151,2.255,23.428,7.96C367.427,397.824,365.555,400.174,363.613,402.612z"/>
	<path fill-rule="evenodd" clip-rule="evenodd" fill="#C62336" d="M614.455,431.445c0,1.942-0.001,3.885-0.001,5.827
		c-0.499,5.043-3.178,8.784-7.136,11.689c-4.636,3.402-10.023,4.604-15.613,4.512c-8.082-0.133-15.331-2.806-21.502-8.152
		c-0.419-0.362-0.864-0.694-1.455-1.166c2.289-2.661,4.413-5.129,6.689-7.775c0.667,0.512,1.271,0.975,1.874,1.438
		c4.756,3.661,9.987,6.042,16.133,5.617c1.723-0.119,3.492-0.521,5.098-1.154c2.841-1.122,4.407-3.364,4.594-6.449
		c0.173-2.885-0.995-5.163-3.457-6.653c-1.564-0.946-3.229-1.741-4.9-2.49c-3.641-1.63-7.319-3.175-10.972-4.778
		c-2.578-1.132-4.949-2.592-6.984-4.562c-7.009-6.782-6.875-17.707,0.303-24.332c3.67-3.387,8.114-5.092,12.985-5.561
		c8.298-0.798,15.619,1.617,21.86,7.188c0.229,0.204,0.406,0.466,0.755,0.872c-1.892,2.377-3.764,4.729-5.656,7.105
		c-1.083-0.754-1.99-1.403-2.915-2.026c-4.008-2.696-8.437-3.817-13.207-3.166c-1.615,0.221-3.314,0.76-4.689,1.614
		c-3.898,2.421-4.205,7.687-0.647,10.586c1.339,1.092,2.944,1.92,4.535,2.626c3.791,1.682,7.646,3.216,11.474,4.815
		c2.814,1.177,5.501,2.581,7.779,4.645C612.279,424.328,614.198,427.459,614.455,431.445z"/>
	<path fill-rule="evenodd" clip-rule="evenodd" fill="#6B823C" d="M271.325,106.626c-0.032,11.538-9.222,20.743-20.729,20.764
		c-11.581,0.021-20.809-9.3-20.757-20.965c0.052-11.528,9.275-20.647,20.838-20.6C262.206,85.871,271.357,95.091,271.325,106.626z"
		/>
	<path fill-rule="evenodd" clip-rule="evenodd" fill="#6B823C" d="M366.326,128.616c-10.699-0.043-19.283-8.716-19.253-19.453
		c0.03-10.633,8.843-19.353,19.479-19.273c10.655,0.08,19.349,8.867,19.286,19.496C385.775,120.056,377.045,128.66,366.326,128.616z
		"/>
	<path fill-rule="evenodd" clip-rule="evenodd" fill="#C62437" d="M209.12,418.432c4.205-9.994,8.41-19.987,12.586-29.911
		c3.981,0,7.708,0,11.793,0c-0.424,0.979-0.733,1.761-1.095,2.517c-5.688,11.885-11.401,23.758-17.043,35.665
		c-0.524,1.106-0.826,2.423-0.842,3.647c-0.082,6.395-0.038,12.791-0.038,19.187c0,0.786,0,1.572,0,2.509c-3.824,0-7.462,0-11.451,0
		c0-0.723,0-1.487,0-2.251c0-6.476,0.038-12.951-0.035-19.427c-0.013-1.146-0.295-2.38-0.784-3.416
		c-5.69-12.062-11.445-24.092-17.177-36.133c-0.331-0.695-0.607-1.417-0.984-2.305c4.147,0,8.032,0,12.139,0
		c4.139,9.985,8.28,19.976,12.421,29.966C208.78,418.464,208.95,418.448,209.12,418.432z"/>
	<path fill-rule="evenodd" clip-rule="evenodd" fill="#6B823D" d="M249.86,222.846c-0.85,0.528-1.508,0.958-2.186,1.354
		c-10.823,6.334-21.646,12.668-32.474,18.992c-4.042,2.361-7.776,1.917-11.085-1.395c-2.448-2.45-4.139-5.308-3.971-8.92
		c0.113-2.426,1.055-4.484,3.08-5.955c9.763-7.091,19.523-14.185,29.288-21.274c0.189-0.137,0.416-0.222,0.865-0.457
		C238.812,211.014,244.281,216.871,249.86,222.846z"/>
	<path fill-rule="evenodd" clip-rule="evenodd" fill="#6C823D" d="M367.578,218.863c5.185-5.556,10.279-11.017,15.454-16.563
		c0.754,0.504,1.419,0.917,2.051,1.375c8.403,6.098,16.727,12.31,25.236,18.256c3.813,2.665,4.276,7.25,2.784,10.375
		c-1.728,3.617-4.176,6.523-8.518,6.818c-1.28,0.088-2.787-0.162-3.882-0.792c-10.795-6.209-21.525-12.531-32.271-18.825
		C368.177,219.357,367.955,219.149,367.578,218.863z"/>
	<path fill-rule="evenodd" clip-rule="evenodd" fill="#C62537" d="M486.424,452.117c-3.727,0-7.313,0-10.898,0
		c-0.46-1.631-0.617-60.186-0.151-63.559c3.614,0,7.251,0,11.05,0C486.424,409.694,486.424,430.763,486.424,452.117z"/>
	<path fill-rule="evenodd" clip-rule="evenodd" fill="#C62437" d="M299.333,414.14c-0.35-0.599-0.597-1.002-0.826-1.416
		c-0.613-1.112-1.219-2.229-1.94-3.552c4.518-2.691,8.054-6.068,8.02-11.987c-0.688-0.092-1.363-0.168-2.033-0.275
		c-3.045-0.488-4.958-2.671-5.04-5.74c-0.097-3.612,1.652-6.118,4.738-6.789c4.075-0.886,7.563,1.232,8.641,5.569
		c1.424,5.733,0.739,11.258-2.446,16.325C306.27,409.737,303.179,412.194,299.333,414.14z"/>
	<path fill-rule="evenodd" clip-rule="evenodd" fill="#C72638" d="M470.588,172.923c-2.053-0.02-3.536-1.596-3.521-3.74
		c0.016-2.132,1.534-3.678,3.593-3.658c2.041,0.02,3.556,1.617,3.537,3.73C474.179,171.369,472.63,172.942,470.588,172.923z"/>
	<path fill-rule="evenodd" clip-rule="evenodd" fill="#C7283A" d="M392.023,27.381c-0.027,1.941-1.584,3.458-3.557,3.466
		c-2.078,0.008-3.639-1.611-3.546-3.682c0.088-1.958,1.672-3.42,3.642-3.361C390.502,23.862,392.051,25.463,392.023,27.381z"/>
	<path fill-rule="evenodd" clip-rule="evenodd" fill="#C7283A" d="M341.039,333.173c-2.012,0.05-3.559-1.366-3.643-3.333
		c-0.087-2.053,1.518-3.734,3.548-3.719c1.917,0.014,3.531,1.605,3.559,3.509C344.531,331.557,342.997,333.125,341.039,333.173z"/>
	<path fill-rule="evenodd" clip-rule="evenodd" fill="#C7283A" d="M276.399,329.623c0.053,1.887-1.462,3.509-3.37,3.608
		c-2.049,0.106-3.713-1.409-3.759-3.425c-0.044-1.941,1.406-3.506,3.339-3.602C274.649,326.104,276.344,327.633,276.399,329.623z"/>
	<path fill-rule="evenodd" clip-rule="evenodd" fill="#C8293B" d="M276,9.134c0.019,2.031-1.599,3.623-3.631,3.574
		c-1.888-0.046-3.474-1.642-3.496-3.518c-0.022-1.878,1.524-3.471,3.437-3.541C274.376,5.574,275.98,7.088,276,9.134z"/>
	<path fill-rule="evenodd" clip-rule="evenodd" fill="#C7283A" d="M165.049,254.971c-2.024,0.052-3.702-1.548-3.697-3.525
		c0.004-1.874,1.581-3.479,3.472-3.537c2.029-0.062,3.657,1.52,3.655,3.548C168.476,253.4,166.992,254.92,165.049,254.971z"/>
	<path fill-rule="evenodd" clip-rule="evenodd" fill="#C8293B" d="M452.228,251.342c-0.013,1.954-1.491,3.462-3.437,3.503
		c-2.011,0.042-3.671-1.578-3.659-3.572c0.011-1.85,1.627-3.494,3.488-3.55C450.588,247.664,452.241,249.322,452.228,251.342z"/>
	<path fill-rule="evenodd" clip-rule="evenodd" fill="#C7283A" d="M147.379,186.662c0.025,1.986-1.434,3.494-3.432,3.546
		c-2.051,0.054-3.732-1.581-3.685-3.583c0.044-1.892,1.674-3.45,3.603-3.444C145.839,183.186,147.354,184.687,147.379,186.662z"/>
	<path fill-rule="evenodd" clip-rule="evenodd" fill="#C72739" d="M224.536,31.158c-1.948-0.064-3.442-1.646-3.405-3.605
		c0.036-1.958,1.59-3.513,3.514-3.517c2.032-0.003,3.595,1.662,3.513,3.743C228.081,29.729,226.48,31.222,224.536,31.158z"/>
	<path fill-rule="evenodd" clip-rule="evenodd" fill="#C82A3C" d="M456.467,98.872c1.999,0.062,3.518,1.754,3.409,3.801
		c-0.102,1.916-1.718,3.402-3.628,3.336c-1.878-0.064-3.476-1.697-3.48-3.558C452.762,100.497,454.503,98.812,456.467,98.872z"/>
	<path fill-rule="evenodd" clip-rule="evenodd" fill="#C7283A" d="M467.122,138.581c-1.854,0.07-3.522-1.465-3.647-3.354
		c-0.133-2.024,1.395-3.713,3.412-3.771c1.952-0.055,3.511,1.363,3.627,3.302C470.634,136.772,469.095,138.507,467.122,138.581z"/>
	<path fill-rule="evenodd" clip-rule="evenodd" fill="#C7283A" d="M151.059,216.616c1.985,0.059,3.574,1.796,3.459,3.783
		c-0.111,1.923-1.681,3.351-3.638,3.308c-1.932-0.042-3.473-1.585-3.482-3.486C147.389,218.257,149.114,216.559,151.059,216.616z"/>
	<path fill-rule="evenodd" clip-rule="evenodd" fill="#C8293B" d="M142.96,173.163c-1.857,0.008-3.525-1.583-3.602-3.437
		c-0.082-1.979,1.553-3.672,3.56-3.688c2.031-0.017,3.599,1.594,3.548,3.644C146.418,171.595,144.849,173.154,142.96,173.163z"/>
	<path fill-rule="evenodd" clip-rule="evenodd" fill="#C7283A" d="M466.154,219.977c0.023,2.047-1.574,3.668-3.573,3.625
		c-1.884-0.041-3.463-1.639-3.485-3.526c-0.024-2.004,1.622-3.642,3.626-3.605C464.66,216.504,466.13,218.007,466.154,219.977z"/>
	<path fill-rule="evenodd" clip-rule="evenodd" fill="#C7283A" d="M150.97,122.44c-2.095,0.049-3.652-1.448-3.647-3.507
		c0.004-1.933,1.505-3.483,3.426-3.538c1.999-0.058,3.678,1.568,3.674,3.557C154.419,120.866,152.905,122.396,150.97,122.44z"/>
	<path fill-rule="evenodd" clip-rule="evenodd" fill="#C8293B" d="M327.22,6.433c-0.018,1.959-1.776,3.639-3.722,3.555
		c-1.905-0.083-3.392-1.661-3.383-3.592c0.01-2.047,1.637-3.62,3.658-3.536C325.662,2.939,327.238,4.573,327.22,6.433z"/>
	<path fill-rule="evenodd" clip-rule="evenodd" fill="#C7283A" d="M376.743,19.643c-0.04,1.92-1.627,3.442-3.581,3.435
		c-2.063-0.007-3.641-1.665-3.53-3.706c0.106-1.942,1.733-3.419,3.676-3.335C375.25,16.119,376.783,17.728,376.743,19.643z"/>
	<path fill-rule="evenodd" clip-rule="evenodd" fill="#C82A3C" d="M402.882,33.108c1.996,0.023,3.625,1.73,3.539,3.708
		c-0.081,1.879-1.722,3.441-3.6,3.428c-1.99-0.015-3.58-1.705-3.505-3.729C399.388,34.589,400.961,33.085,402.882,33.108z"/>
	<path fill-rule="evenodd" clip-rule="evenodd" fill="#C8293B" d="M466.08,118.499c-0.033,1.954-1.528,3.432-3.487,3.448
		c-2.037,0.017-3.694-1.615-3.64-3.583c0.051-1.855,1.695-3.495,3.533-3.521C464.468,114.814,466.114,116.488,466.08,118.499z"/>
	<path fill-rule="evenodd" clip-rule="evenodd" fill="#C8293B" d="M143.813,148.896c1.911,0,3.487,1.536,3.54,3.448
		c0.056,2.035-1.513,3.645-3.554,3.647c-1.909,0.002-3.509-1.531-3.568-3.419C140.168,150.606,141.835,148.896,143.813,148.896z"/>
	<path fill-rule="evenodd" clip-rule="evenodd" fill="#C82A3C" d="M452.106,87.48c-0.176,1.98-1.968,3.431-3.981,3.223
		c-1.889-0.196-3.285-1.894-3.133-3.81c0.149-1.886,1.843-3.375,3.719-3.271C450.693,83.732,452.279,85.535,452.106,87.48z"/>
	<path fill-rule="evenodd" clip-rule="evenodd" fill="#C8293B" d="M221.354,311.277c0.067-1.958,1.878-3.616,3.802-3.481
		c1.899,0.133,3.371,1.755,3.324,3.664c-0.05,2.064-1.643,3.519-3.742,3.416C222.839,314.783,221.29,313.135,221.354,311.277z"/>
	<path fill-rule="evenodd" clip-rule="evenodd" fill="#C7283A" d="M292.877,6.379c0.039,2.086-1.483,3.664-3.519,3.648
		c-1.901-0.014-3.464-1.556-3.518-3.47c-0.056-1.979,1.6-3.672,3.579-3.66C291.338,2.91,292.841,4.422,292.877,6.379z"/>
	<path fill-rule="evenodd" clip-rule="evenodd" fill="#C72638" d="M344.118,9c0.029,1.965-1.459,3.511-3.431,3.564
		c-1.941,0.053-3.589-1.44-3.687-3.342c-0.103-1.983,1.577-3.729,3.581-3.722C342.517,5.506,344.089,7.062,344.118,9z"/>
	<path fill-rule="evenodd" clip-rule="evenodd" fill="#C72739" d="M255.947,10.052c1.912,0.03,3.469,1.579,3.503,3.485
		c0.036,2.007-1.602,3.674-3.586,3.65c-2.005-0.024-3.541-1.679-3.464-3.733C252.471,11.523,254.036,10.022,255.947,10.052z"/>
	<path fill-rule="evenodd" clip-rule="evenodd" fill="#C72739" d="M156.974,106.489c-1.971-0.009-3.444-1.507-3.462-3.521
		c-0.018-1.99,1.451-3.556,3.385-3.608c1.994-0.055,3.697,1.649,3.65,3.651C160.502,104.928,158.89,106.498,156.974,106.489z"/>
	<path fill-rule="evenodd" clip-rule="evenodd" fill="#C8293B" d="M243.43,19.753c0.015,1.943-1.509,3.54-3.434,3.597
		c-1.899,0.056-3.573-1.506-3.651-3.409c-0.083-2.021,1.551-3.701,3.585-3.685C241.901,16.27,243.415,17.783,243.43,19.753z"/>
	<path fill-rule="evenodd" clip-rule="evenodd" fill="#C8293B" d="M177.632,73.35c-0.035,1.942-1.542,3.424-3.498,3.443
		c-2.008,0.019-3.663-1.637-3.611-3.614c0.049-1.875,1.664-3.462,3.541-3.481C176.061,69.677,177.669,71.324,177.632,73.35z"/>
	<path fill-rule="evenodd" clip-rule="evenodd" fill="#C8293B" d="M164.71,91.166c-1.946-0.024-3.448-1.522-3.474-3.464
		c-0.027-2.015,1.611-3.681,3.592-3.653c1.829,0.025,3.47,1.677,3.513,3.535C168.386,89.573,166.746,91.191,164.71,91.166z"/>
	<path fill-rule="evenodd" clip-rule="evenodd" fill="#C7283A" d="M157.125,232.682c2.012-0.001,3.663,1.665,3.59,3.625
		c-0.069,1.875-1.679,3.421-3.576,3.435c-1.914,0.013-3.494-1.508-3.55-3.417C153.529,234.283,155.081,232.683,157.125,232.682z"/>
	<path fill-rule="evenodd" clip-rule="evenodd" fill="#C8293B" d="M442.954,265.593c0.057,1.853-1.499,3.527-3.381,3.641
		c-2.016,0.121-3.695-1.431-3.743-3.458c-0.047-2.025,1.556-3.673,3.563-3.661C441.257,262.125,442.896,263.728,442.954,265.593z"/>
	<path fill-rule="evenodd" clip-rule="evenodd" fill="#C82A3C" d="M188.64,279.025c0.049,2.037-1.536,3.668-3.555,3.659
		c-1.883-0.009-3.513-1.588-3.569-3.458c-0.059-1.944,1.653-3.687,3.608-3.672C187.044,275.569,188.594,277.099,188.64,279.025z"/>
	<path fill-rule="evenodd" clip-rule="evenodd" fill="#C8293B" d="M210.612,305.589c-1.877,0.028-3.516-1.518-3.604-3.399
		c-0.094-1.986,1.517-3.68,3.519-3.699c1.932-0.018,3.502,1.463,3.582,3.378C214.191,303.888,212.621,305.559,210.612,305.589z"/>
	<path fill-rule="evenodd" clip-rule="evenodd" fill="#C7283A" d="M388.744,314.839c-1.929-0.013-3.515-1.581-3.545-3.505
		c-0.03-1.993,1.705-3.697,3.686-3.618c1.944,0.078,3.384,1.642,3.354,3.643C392.208,313.366,390.714,314.853,388.744,314.839z"/>
	<path fill-rule="evenodd" clip-rule="evenodd" fill="#C8293B" d="M357.368,321.646c1.86-0.071,3.526,1.469,3.628,3.357
		c0.112,2.088-1.348,3.707-3.395,3.763c-1.923,0.053-3.542-1.394-3.688-3.295C353.766,323.564,355.43,321.721,357.368,321.646z"/>
	<path fill-rule="evenodd" clip-rule="evenodd" fill="#C8293B" d="M146.644,200.102c1.91,0.056,3.458,1.636,3.461,3.532
		c0.002,1.956-1.755,3.663-3.689,3.585c-1.997-0.08-3.533-1.794-3.418-3.817C143.105,201.482,144.692,200.046,146.644,200.102z"/>
	<path fill-rule="evenodd" clip-rule="evenodd" fill="#C8293B" d="M310.474,333.321c-0.051,1.828-1.736,3.496-3.555,3.517
		c-1.971,0.021-3.613-1.668-3.57-3.675c0.043-2.048,1.672-3.559,3.726-3.456C308.954,329.8,310.525,331.471,310.474,333.321z"/>
	<path fill-rule="evenodd" clip-rule="evenodd" fill="#C7283A" d="M473.276,186.409c0.054,1.951-1.382,3.525-3.313,3.635
		c-2.026,0.114-3.74-1.424-3.806-3.417c-0.063-1.939,1.647-3.703,3.59-3.701C471.619,182.928,473.223,184.512,473.276,186.409z"/>
	<path fill-rule="evenodd" clip-rule="evenodd" fill="#C7283A" d="M150.005,135.426c0.048,2.005-1.584,3.675-3.574,3.658
		c-1.924-0.016-3.44-1.529-3.478-3.47c-0.041-2.074,1.5-3.667,3.527-3.649C148.392,131.982,149.959,133.521,150.005,135.426z"/>
	<path fill-rule="evenodd" clip-rule="evenodd" fill="#C72638" d="M357.17,9.96c2.003,0.009,3.503,1.479,3.517,3.448
		c0.015,1.944-1.506,3.529-3.442,3.589c-2.032,0.063-3.646-1.563-3.604-3.631C353.681,11.355,355.136,9.951,357.17,9.96z"/>
	<path fill-rule="evenodd" clip-rule="evenodd" fill="#C72739" d="M456.572,239.542c-2,0.033-3.522-1.404-3.583-3.383
		c-0.063-2.053,1.556-3.725,3.569-3.687c1.913,0.035,3.49,1.638,3.5,3.556C460.068,237.975,458.545,239.509,456.572,239.542z"/>
	<path fill-rule="evenodd" clip-rule="evenodd" fill="#C7283A" d="M428.01,63.086c-1.908-0.174-3.351-1.882-3.215-3.806
		c0.144-2.022,1.901-3.441,3.988-3.22c1.898,0.201,3.345,2,3.108,3.868C431.65,61.839,429.905,63.259,428.01,63.086z"/>
	<path fill-rule="evenodd" clip-rule="evenodd" fill="#C82A3C" d="M473.267,151.984c-0.038,1.985-1.77,3.596-3.753,3.491
		c-1.896-0.101-3.433-1.741-3.394-3.622c0.038-1.871,1.663-3.492,3.527-3.52C471.617,148.304,473.306,150.008,473.267,151.984z"/>
	<path fill-rule="evenodd" clip-rule="evenodd" fill="#C7283A" d="M256.273,328.799c-2.003,0.01-3.53-1.445-3.581-3.413
		c-0.051-1.993,1.664-3.725,3.639-3.673c1.921,0.05,3.427,1.637,3.423,3.607C259.75,327.318,258.277,328.79,256.273,328.799z"/>
	<path fill-rule="evenodd" clip-rule="evenodd" fill="#C8293B" d="M197.106,51.324c-1.914,0.06-3.547-1.416-3.664-3.311
		c-0.123-1.994,1.451-3.737,3.441-3.811c1.947-0.071,3.682,1.622,3.68,3.592C200.561,49.702,199.031,51.264,197.106,51.324z"/>
	<path fill-rule="evenodd" clip-rule="evenodd" fill="#C82A3C" d="M419.995,291.048c0.048,1.914-1.439,3.525-3.353,3.632
		c-1.992,0.111-3.724-1.478-3.774-3.463c-0.05-1.981,1.623-3.681,3.604-3.661C418.361,287.576,419.948,289.148,419.995,291.048z"/>
	<path fill-rule="evenodd" clip-rule="evenodd" fill="#C72739" d="M428.559,282.591c-1.885,0.002-3.505-1.61-3.541-3.524
		c-0.038-1.954,1.462-3.528,3.42-3.59c2.065-0.065,3.663,1.514,3.635,3.593C432.045,281.003,430.464,282.588,428.559,282.591z"/>
	<path fill-rule="evenodd" clip-rule="evenodd" fill="#C72739" d="M403.069,298.441c2.011-0.027,3.516,1.4,3.564,3.382
		c0.051,2.073-1.545,3.712-3.572,3.668c-1.917-0.041-3.489-1.646-3.486-3.559C399.577,299.976,401.085,298.469,403.069,298.441z"/>
	<path fill-rule="evenodd" clip-rule="evenodd" fill="#C72739" d="M369.993,319.042c0.025-1.993,1.523-3.492,3.491-3.493
		c2.023-0.002,3.662,1.706,3.566,3.713c-0.092,1.931-1.685,3.38-3.662,3.333C371.401,322.547,369.968,321.047,369.993,319.042z"/>
	<path fill-rule="evenodd" clip-rule="evenodd" fill="#C72739" d="M177.855,265.722c0.052,1.941-1.441,3.52-3.4,3.593
		c-2.008,0.075-3.562-1.322-3.659-3.292c-0.103-2.085,1.436-3.746,3.476-3.755C176.214,262.26,177.803,263.792,177.855,265.722z"/>
	<path fill-rule="evenodd" clip-rule="evenodd" fill="#C82A3C" d="M289.693,335.932c-1.966-0.042-3.643-1.822-3.528-3.745
		c0.111-1.879,1.766-3.421,3.643-3.396c1.996,0.027,3.563,1.72,3.473,3.749C293.194,334.462,291.597,335.972,289.693,335.932z"/>
	<path fill-rule="evenodd" clip-rule="evenodd" fill="#C72739" d="M210.395,40.531c-1.93,0.064-3.523-1.439-3.6-3.397
		c-0.08-2.027,1.298-3.56,3.282-3.653c2.088-0.098,3.751,1.423,3.775,3.454C213.874,38.841,212.31,40.468,210.395,40.531z"/>
	<path fill-rule="evenodd" clip-rule="evenodd" fill="#C72638" d="M467.035,199.965c1.971-0.022,3.536,1.452,3.603,3.392
		c0.069,2.022-1.552,3.636-3.628,3.611c-2.009-0.024-3.418-1.476-3.416-3.517C463.596,201.419,465.009,199.987,467.035,199.965z"/>
	<path fill-rule="evenodd" clip-rule="evenodd" fill="#C72638" d="M439.141,69.306c1.98-0.007,3.468,1.464,3.495,3.458
		c0.027,2.048-1.35,3.525-3.345,3.584c-2.076,0.062-3.702-1.509-3.676-3.552C435.641,70.866,437.208,69.313,439.141,69.306z"/>
	<path fill-rule="evenodd" clip-rule="evenodd" fill="#C72638" d="M200.735,291.269c-0.015,2.004-1.475,3.471-3.466,3.48
		c-2.064,0.011-3.651-1.617-3.572-3.662c0.075-1.918,1.699-3.428,3.636-3.381C199.305,287.753,200.75,289.267,200.735,291.269z"/>
	<path fill-rule="evenodd" clip-rule="evenodd" fill="#C62537" d="M243.794,319.092c0.034,1.931-1.481,3.503-3.437,3.568
		c-2.057,0.068-3.716-1.533-3.683-3.555c0.032-1.934,1.585-3.438,3.551-3.439C242.198,315.665,243.761,317.165,243.794,319.092z"/>
	<path fill-rule="evenodd" clip-rule="evenodd" fill="#C72739" d="M188.462,59.917c0.015,1.913-1.538,3.457-3.506,3.488
		c-2.041,0.032-3.527-1.354-3.589-3.35c-0.064-2.072,1.512-3.694,3.569-3.671C186.833,56.405,188.448,58.023,188.462,59.917z"/>
	<path fill-rule="evenodd" clip-rule="evenodd" fill="#C62537" d="M327.487,332.315c0.01,1.975-1.476,3.547-3.402,3.601
		c-2.015,0.057-3.624-1.586-3.58-3.656c0.042-1.986,1.56-3.482,3.519-3.466C325.975,328.81,327.477,330.336,327.487,332.315z"/>
	<path fill-rule="evenodd" clip-rule="evenodd" fill="#C72638" d="M416.188,50.922c-2.052,0.001-3.446-1.375-3.475-3.429
		c-0.027-2.013,1.389-3.526,3.363-3.594c2.031-0.07,3.685,1.563,3.646,3.601C419.684,49.487,418.204,50.92,416.188,50.922z"/>
	<path fill-rule="evenodd" clip-rule="evenodd" fill="#DB6E7A" d="M14.645,388.859c-2.839-0.031-5.68-0.046-8.519-0.106
		c-0.771-0.017-1.541-0.17-2.311-0.261c3.394-0.06,6.788-0.129,10.182-0.155C14.211,388.335,14.429,388.677,14.645,388.859z"/>
	<path fill-rule="evenodd" clip-rule="evenodd" fill="#FFFFFF" d="M133.459,403.605c-0.11-0.029-0.221-0.058-0.331-0.087
		c0.03-0.07,0.061-0.142,0.091-0.212c0.066,0.116,0.133,0.232,0.199,0.35L133.459,403.605z"/>
	<path fill-rule="evenodd" clip-rule="evenodd" fill="#FFFDFE" d="M519,442.938c0-15.13,0-30.034,0-45.123
		c4.574-0.1,9.025-0.36,13.334,1.18c5.477,1.958,8.848,5.921,10.351,11.407c1.786,6.522,1.795,13.134-0.063,19.643
		c-2.229,7.803-7.728,12.174-16.029,12.862C524.142,443.109,521.663,442.938,519,442.938z"/>
	<path fill-rule="evenodd" clip-rule="evenodd" fill="#FDF9FA" d="M255.562,426.022c2.625-9.542,5.202-18.907,7.786-28.295
		c-0.005,0,0.07-0.012,0.139,0.004c0.072,0.015,0.186,0.043,0.199,0.089c2.601,9.354,5.194,18.709,7.826,28.202
		C266.187,426.022,261.021,426.022,255.562,426.022z"/>
</g>
</svg>
