<?xml version="1.0" encoding="utf-8"?>
<!-- Generator: Adobe Illustrator 16.0.0, SVG Export Plug-In . SVG Version: 6.00 Build 0)  -->
<!DOCTYPE svg PUBLIC "-//W3C//DTD SVG 1.1//EN" "http://www.w3.org/Graphics/SVG/1.1/DTD/svg11.dtd">
<svg version="1.1" id="Layer_1" xmlns="http://www.w3.org/2000/svg" xmlns:xlink="http://www.w3.org/1999/xlink" x="0px" y="0px"
	 width="616.321px" height="565.921px" viewBox="0 0 616.321 565.921" enable-background="new 0 0 616.321 565.921"
	 xml:space="preserve">
<g>
	<path fill="rgba(0,0,0,0)" d="M0,514.081C0,342.72,0,171.36,0,0c101.12,0,202.24,0,303.361,0c-0.422,0.337-0.873,0.644-1.259,1.018
		c-1.506,1.458-1.529,3.686-0.076,5.114c1.467,1.441,3.752,1.365,5.11-0.17c1.41-1.593,1.139-3.919-0.633-5.244
		c-0.376-0.281-0.813-0.481-1.223-0.718c103.68,0,207.36,0,311.04,0c0,171.521,0,343.041,0,514.561
		c-0.15-0.268-0.319-0.526-0.45-0.804c-0.826-1.746-2.298-2.483-4.055-2.021c-1.474,0.389-2.579,1.808-2.601,3.342
		c-0.024,1.652,1.104,3.067,2.746,3.442c1.83,0.419,3.135-0.294,3.944-2.148c0.126-0.289,0.276-0.567,0.415-0.852
		c0,16.8,0,33.6,0,50.4c-205.44,0-410.88,0-616.321,0c0-16.641,0-33.28,0-49.921c0.471,0.523,0.92,1.067,1.417,1.565
		c1.371,1.372,3.568,1.425,4.937,0.141c1.407-1.319,1.512-3.516,0.235-4.928c-1.337-1.479-3.615-1.548-5.106-0.146
		C0.98,513.107,0.494,513.598,0,514.081z M261.929,160.208c0.466-0.233,0.6-0.32,0.746-0.371
		c19.792-6.859,35.41-19.175,47.289-36.314c1.301-1.877,2.374-4.011,3.089-6.178c1.758-5.331-1.35-9.627-6.966-10.006
		c-3.13-0.211-5.508,1.112-7.619,3.313c-5.774,6.021-12.029,11.485-19.17,15.859c-7.346,4.499-15.2,7.473-23.931,7.544
		c-11.355,0.092-21.617-3.036-30.248-10.672c-5.301-4.689-9.209-10.44-11.987-16.888c-2.146-4.98-3.857-10.147-5.772-15.227
		c-0.45-1.193-0.821-2.438-1.44-3.542c-1.837-3.276-5.482-4.824-9.463-4.149c-3.382,0.574-5.309,2.525-5.975,6.557
		c-0.334,2.021-0.47,4.174-0.155,6.183c0.593,3.78,1.399,7.548,2.429,11.233c5.089,18.214,14.711,33.744,28.185,46.93
		c1.418,1.388,2.334,2.873,2.813,4.827c2.13,8.689,4.479,17.326,6.579,26.022c1.082,4.477,3.083,8.341,6.235,11.686
		c6.636,7.04,13.215,14.133,19.816,21.207c0.535,0.573,1.053,1.162,1.584,1.75c-0.371,0.792-0.663,1.443-0.977,2.084
		c-5.485,11.194-10.988,22.38-16.452,33.584c-1.923,3.943-1.043,8.052,2.405,10.745c1.298,1.014,2.824,1.849,4.375,2.407
		c4.375,1.574,8.452,0.198,10.885-3.891c8.584-14.425,17.283-28.783,26.042-43.104c2.054-3.358,2.19-6.438,0.271-9.892
		c-5.045-9.083-9.833-18.309-14.929-27.362c-2.341-4.159-4.074-8.46-5.028-13.12c-0.512-2.502-1.207-4.967-1.801-7.453
		C262.465,162.741,262.212,161.501,261.929,160.208z M351.926,159.585c-1.285,5.18-2.479,10.147-3.768,15.089
		c-0.358,1.374-0.865,2.746-1.535,3.995c-5.329,9.931-10.672,19.855-16.105,29.729c-1.723,3.13-1.633,5.975,0.221,9.017
		c8.277,13.585,16.471,27.222,24.703,40.835c2.199,3.637,5.279,4.925,9.392,3.811c6.133-1.663,10.233-7.04,6.6-13.945
		c-5.282-10.039-10.086-20.329-15.087-30.516c-0.275-0.563-0.484-1.157-0.751-1.8c0.583-0.631,1.118-1.215,1.657-1.795
		c6.473-6.975,12.945-13.949,19.419-20.922c2.282-2.459,3.713-5.34,4.529-8.596c2.177-8.678,4.458-17.33,6.638-26.008
		c0.383-1.527,1.055-2.745,2.171-3.873c2.586-2.612,5.164-5.251,7.522-8.066c11.44-13.653,18.839-29.203,21.688-46.847
		c0.43-2.657,0.271-5.258-0.62-7.802c-1.018-2.905-3.149-4.328-6.155-4.501c-3.798-0.219-7.204,1.961-8.661,5.61
		c-0.77,1.928-1.376,3.92-2.073,5.877c-2.177,6.11-4.706,12.043-8.204,17.552c-11.619,18.296-35.691,23.324-53.077,14.352
		c-6.238-3.22-11.795-7.337-16.99-12c-0.625-0.56-1.279-1.087-2.118-1.797c-1.139,6.503-4.862,11.251-8.538,16.195
		C323.5,145.419,336.358,154.27,351.926,159.585z M169.331,386.664c-3.669,0-7.137,0-10.849,0c0,8.219-0.157,16.283,0.044,24.338
		c0.202,8.08,0.761,16.151,1.164,24.226c-7.949-16.711-17.686-32.394-26.387-48.724c-2.051,0-3.965-0.005-5.879,0.002
		c-1.88,0.007-3.76,0.025-5.665,0.039c0,21.433,0,42.507,0,63.548c3.649,0,7.12,0,10.72,0c0-8.269,0.144-16.344-0.041-24.412
		c-0.183-8.013-0.696-16.02-1.063-24.028c7.934,16.626,17.619,32.311,26.25,48.482c4.003,0,7.802,0,11.706,0
		C169.331,428.962,169.331,407.947,169.331,386.664z M505.615,386.869c0,21.114,0,42.181,0,63.422c0.959,0,1.747,0,2.535,0
		c4.877,0,9.755,0.058,14.63-0.024c2.471-0.041,4.97-0.136,7.397-0.551c10.687-1.825,18.075-7.676,21.438-18.154
		c2.397-7.472,2.576-15.121,1.031-22.748c-2.484-12.258-9.772-19.366-22.058-21.549c-8.159-1.449-16.421-0.646-24.643-0.65
		C505.884,386.614,505.822,386.706,505.615,386.869z M437.493,411.469c6.437-8.267,12.717-16.331,18.991-24.399
		c0.036-0.046,0.015-0.152-0.004-0.224c-0.02-0.076-0.068-0.145-0.168-0.343c-3.126,0-6.323,0.128-9.505-0.049
		c-1.847-0.103-2.906,0.63-3.974,2.009c-6.461,8.345-12.997,16.631-19.519,24.93c-0.457,0.581-0.989,1.104-1.486,1.653
		c-0.153-0.063-0.306-0.128-0.459-0.191c0-9.378,0-18.756,0-28.322c-3.897-0.021-7.514-0.099-11.076,0.043
		c-0.471,3.833-0.31,61.868,0.174,63.715c1.789,0,3.624,0.049,5.454-0.014c1.798-0.062,3.631,0.291,5.519-0.303
		c0-0.877,0-1.669,0-2.461c0-4.638,0.032-9.276-0.021-13.914c-0.015-1.266,0.289-2.291,1.109-3.275
		c2.354-2.825,4.626-5.719,6.947-8.571c0.32-0.394,0.74-0.706,1.202-1.14c0.517,0.863,0.936,1.538,1.332,2.227
		c4.94,8.591,9.898,17.172,14.794,25.788c0.664,1.17,1.357,1.758,2.789,1.699c2.953-0.121,5.916-0.026,8.874-0.046
		c0.497-0.003,0.994-0.129,1.734-0.232C452.558,437.064,445.067,424.336,437.493,411.469z M51.51,450.22
		c-7.748-13.166-15.271-25.951-22.83-38.795c6.437-8.267,12.905-16.328,19.576-24.922c-3.697,0-6.796,0.121-9.881-0.044
		c-1.957-0.104-3.202,0.511-4.412,2.085c-6.333,8.242-12.793,16.387-19.211,24.563c-0.522,0.666-1.063,1.317-1.596,1.976
		c-0.164-0.052-0.328-0.104-0.492-0.155c0-9.376,0-18.752,0-28.06c-2.527-0.53-9.39-0.479-11.142,0.018c0,21.072,0,42.145,0,63.273
		c3.722,0,7.282,0,10.972,0c0.048-0.82,0.122-1.519,0.124-2.217c0.01-4.799,0.02-9.597-0.005-14.396
		c-0.006-1.067,0.129-2.001,0.859-2.883c2.549-3.079,5.023-6.221,7.54-9.327c0.219-0.271,0.542-0.457,0.903-0.754
		c5.745,9.984,11.4,19.815,17.051,29.637C43.079,450.22,47.065,450.22,51.51,450.22z M305.253,166.091
		c-1.041-0.977-1.809-1.797-2.675-2.494c-5.946-4.782-14.917-3.827-19.481,2.185c-3.774,4.972-3.988,10.418-1,15.74
		c1.621,2.887,3.834,5.507,6.099,7.952c4.738,5.117,10.228,9.399,15.868,13.479c0.316,0.229,0.67,0.406,1.071,0.646
		c0.418-0.286,0.838-0.515,1.191-0.823c5.113-4.466,10.309-8.841,15.281-13.459c2.324-2.159,4.434-4.634,6.248-7.239
		c4.131-5.93,2.906-13.694-2.639-18.324c-5.317-4.438-13.318-4.185-18.413,0.6C306.283,164.842,305.848,165.419,305.253,166.091z
		 M250.772,433.124c7.23,0,14.237,0,21.358,0c1.668,5.725,3.316,11.377,5.004,17.167c2.031,0,3.94,0.005,5.849-0.001
		c1.943-0.006,3.887-0.021,6.075-0.032c-6.998-21.479-13.868-42.567-20.718-63.594c-4.588,0-8.947,0-13.387,0
		c-6.904,21.202-13.769,42.284-20.675,63.492c3.993,0,7.715,0,11.543,0C247.474,444.473,249.099,438.884,250.772,433.124z
		 M75.861,421.872c7.658,0,15.062,0,22.487,0c0-3.276,0-6.333,0-9.605c-7.594,0-14.994,0-22.435,0c0-5.455,0-10.688,0-16.202
		c8.979,0,17.808,0,26.71,0c0-3.283,0-6.28,0-9.381c-12.795,0-25.454,0-38.147,0c0,21.252,0,42.324,0,63.375
		c3.31,0.457,37.412,0.316,39.085-0.137c0-3.004,0-6.004,0-9.265c-9.303,0-18.454,0-27.702,0
		C75.861,434.342,75.861,428.293,75.861,421.872z M323.385,442.075c0.701,0.658,1.192,1.175,1.738,1.624
		c7.718,6.352,16.568,8.781,26.421,7.384c4.765-0.676,9.01-2.594,12.572-5.969c7.1-6.725,7.677-20.903-2.695-27.21
		c-1.903-1.156-3.926-2.145-5.968-3.042c-3.582-1.574-7.254-2.944-10.821-4.548c-1.659-0.746-3.329-1.644-4.701-2.815
		c-3.306-2.823-2.968-7.916,0.679-10.29c1.295-0.844,2.89-1.418,4.422-1.672c5.228-0.868,9.972,0.522,14.281,3.527
		c0.705,0.492,1.41,0.984,2.273,1.586c1.969-2.466,3.831-4.799,5.72-7.165c-3.925-3.83-8.3-6.252-13.313-7.356
		c-7.502-1.652-14.687-0.892-21.001,3.849c-8.97,6.734-9.151,19.518-0.39,26.488c1.791,1.426,3.863,2.563,5.94,3.552
		c3.604,1.715,7.328,3.175,10.97,4.813c1.671,0.751,3.375,1.512,4.877,2.541c4.844,3.317,4.389,10.21-0.916,12.731
		c-1.819,0.864-3.969,1.311-5.994,1.416c-5.865,0.306-10.9-2.011-15.471-5.499c-0.67-0.512-1.343-1.018-2.063-1.563
		C327.728,437.03,325.646,439.449,323.385,442.075z M566.566,442.399c0.596,0.332,1.074,0.504,1.435,0.813
		c7.877,6.752,16.985,9.323,27.199,7.841c4.423-0.642,8.414-2.407,11.823-5.415c7.846-6.922,8.223-21.233-1.896-27.563
		c-1.753-1.097-3.609-2.06-5.502-2.895c-3.725-1.645-7.54-3.086-11.254-4.754c-1.732-0.778-3.494-1.678-4.929-2.893
		c-3.435-2.906-3.047-8.023,0.771-10.425c1.308-0.822,2.916-1.35,4.453-1.595c5.237-0.833,9.961,0.62,14.247,3.647
		c0.688,0.486,1.377,0.972,2.13,1.502c2.001-2.515,3.828-4.811,5.652-7.104c-0.369-0.421-0.555-0.686-0.79-0.895
		c-6.48-5.736-14.047-8.082-22.609-7.042c-4.278,0.52-8.195,2.066-11.543,4.88c-8.094,6.805-8.217,18.813-0.118,25.585
		c1.933,1.616,4.225,2.879,6.506,3.984c3.59,1.74,7.328,3.171,10.969,4.812c1.669,0.752,3.369,1.528,4.854,2.578
		c4.688,3.313,4.211,10.097-0.959,12.601c-1.813,0.878-3.961,1.339-5.985,1.452c-5.864,0.329-10.909-1.967-15.489-5.442
		c-0.684-0.519-1.341-1.07-2.084-1.665C571.223,436.993,569.139,439.411,566.566,442.399z M248.708,83.88
		c-10.404-0.357-20.908,8.137-20.932,20.756c-0.022,11.5,9.238,20.715,20.741,20.737c11.508,0.021,20.762-9.172,20.801-20.667
		C269.358,93.168,260.22,83.936,248.708,83.88z M450.335,516.596c-0.136,0.756-0.24,1.362-0.354,1.967
		c-0.477,2.556-0.495,5.104,0.382,7.574c1.138,3.205,4.18,4.916,7.449,4.161c1.067-0.247,2.059-0.827,3.149-1.281
		c0.501,0.304,1.019,0.683,1.587,0.952c3.029,1.438,6.055,1.551,8.87-0.439c3.578-2.53,5.835-6.082,7.333-10.14
		c0.292-0.793,0.513-1.665-0.49-2.521c-0.518,0.82-0.95,1.564-1.439,2.27c-1.275,1.834-2.49,3.72-3.891,5.455
		c-1.217,1.51-2.81,2.607-4.73,3.127c-1.77,0.479-3.453,0.437-4.747-0.61c1.667-3.217,3.332-6.291,4.849-9.437
		c0.511-1.059,0.758-2.282,0.923-3.458c0.254-1.81-0.671-3.46-2.156-4.205c-1.402-0.703-2.971-0.372-4.356,0.973
		c-0.456,0.441-0.883,0.936-1.228,1.468c-2.057,3.18-3.154,6.628-2.75,10.453c0.133,1.254,0.367,2.498,0.55,3.712
		c-3.256,1.948-5.584,0.917-6.082-2.621c-0.057-0.395-0.045-0.799-0.081-1.196c-0.2-2.203,0.31-4.267,1.088-6.313
		c0.435-1.146,0.544-2.448-0.488-3.353c-1.009-0.883-2.229-0.639-3.395-0.167c-0.548,0.223-1.118,0.392-1.981,0.689
		c0.127-0.779,0.271-1.218,0.252-1.648c-0.031-0.692-0.016-1.458-0.311-2.046c-0.246-0.489-0.904-1.048-1.393-1.061
		c-0.475-0.013-1.244,0.539-1.396,1.004c-0.443,1.348-0.669,2.771-0.922,4.175c-0.112,0.623,0.125,1.389-0.155,1.889
		c-1.787,3.196-3.144,6.678-5.867,9.278c-1.123,1.073-2.417,1.826-4.007,1.983c-1.845,0.182-2.963-0.422-3.505-2.16
		c-0.304-0.973-0.468-2.043-0.429-3.059c0.099-2.53,0.35-5.056,0.542-7.606c-1.763-0.976-2.423-0.817-2.961,0.899
		c-0.405,1.294-0.497,2.701-1.01,3.941c-0.878,2.124-1.918,4.189-3.013,6.213c-0.414,0.764-1.279,1.521-2.173,1.018
		c-0.652-0.368-1.286-1.273-1.385-2.012c-0.188-1.404-0.146-2.887,0.093-4.287c0.334-1.961,0.949-3.872,1.416-5.813
		c0.313-1.304-0.325-2.042-1.591-1.916c-0.866,0.087-1.216,0.683-1.414,1.415c-0.502,1.85-0.922,3.725-1.498,5.551
		c-0.978,3.099-2.9,5.529-5.754,7.06c-2.76,1.479-4.805,0.602-5.841-2.36c-0.774-2.215-1.068-4.515-0.682-6.851
		c0.431-2.602,0.931-5.191,1.385-7.789c0.424-2.423,0.829-4.849,1.266-7.413c0.929,0,1.721,0,2.514,0
		c3.199-0.001,6.398,0.026,9.598-0.021c0.779-0.012,1.591-0.172,2.315-0.45c0.339-0.131,0.726-0.731,0.688-1.074
		c-0.035-0.315-0.572-0.667-0.959-0.824c-0.345-0.141-0.788-0.041-1.188-0.04c-3.279,0.014-6.559,0.029-9.838,0.042
		c-0.858,0.004-1.717,0-2.564,0c-0.092-1.446-0.025-2.662-0.301-3.795c-0.136-0.561-0.834-1.251-1.394-1.381
		c-0.896-0.207-1.095,0.702-1.267,1.409c-0.297,1.22-0.58,2.442-0.89,3.748c-4.331,0-8.486-0.002-12.642,0.003
		c-0.637,0.001-1.293-0.047-1.9,0.097c-0.303,0.071-0.678,0.498-0.724,0.809c-0.044,0.298,0.222,0.85,0.479,0.945
		c0.729,0.271,1.522,0.495,2.294,0.508c3.198,0.054,6.398,0.023,9.598,0.024c0.779,0,1.559,0,2.521,0
		c-0.168,1.239-0.293,2.183-0.423,3.125c-0.558,4.036-1.243,8.06-1.639,12.111c-0.41,4.204-2.695,7.157-6.062,9.216
		c-3.306,2.022-5.811,0.465-6.033-3.416c-0.027-0.479-0.047-0.963-0.008-1.438c0.172-2.063,0.346-4.126,0.565-6.184
		c0.074-0.691,0.069-1.257-0.683-1.58c-0.778-0.335-1.445-0.184-1.896,0.491c-0.302,0.452-0.483,1.007-0.625,1.54
		c-0.267,1.003-0.319,2.086-0.72,3.026c-0.932,2.19-1.955,4.35-3.071,6.452c-0.401,0.755-1.169,1.418-2.185,1.138
		c-1.093-0.302-1.378-1.255-1.46-2.248c-0.065-0.794-0.154-1.615-0.029-2.392c0.338-2.125,0.779-4.233,1.19-6.346
		c0.163-0.835,0.355-1.664,0.524-2.452c-2.248-0.922-2.578-0.822-3.18,1.044c-0.489,1.52-0.85,3.079-1.306,4.609
		c-1.204,4.041-3.82,6.94-7.457,8.932c-0.544,0.298-1.582,0.424-1.993,0.108c-1.983-1.521-4.297-1.937-6.544-2.123
		c-0.124-0.293-0.188-0.369-0.179-0.435c1.512-11.031,3.843-21.87,7.605-32.372c0.162-0.451,0.313-0.909,0.51-1.345
		c0.527-1.165-0.732-2.968-1.838-3.221c-1.523-0.348-1.549,1.006-1.935,1.901c-0.125,0.291-0.179,0.613-0.267,0.921
		c-5.32,18.594-8.234,37.607-9.804,56.844c-0.28,3.432,0.211,6.87,1.281,10.178c0.647,1.997,1.567,3.858,3.116,5.329
		c2.959,2.81,6.609,2.648,9.244-0.458c0.717-0.845,1.398-1.792,1.813-2.808c4.012-9.833,4.778-19.646-0.381-29.372
		c-0.059-0.109,0.016-0.289-0.003-0.068c2.318-1.922,4.433-3.676,6.57-5.448c0.276,0.585,0.534,1.245,0.884,1.852
		c1.62,2.801,4.506,3.174,6.791,0.838c0.661-0.676,1.146-1.526,1.695-2.31c0.284-0.405,0.53-0.838,0.917-1.455
		c0.336,0.748,0.514,1.183,0.722,1.603c1.974,3.982,5.728,5.058,9.347,2.505c1.414-0.997,2.545-2.398,3.793-3.629
		c0.424-0.417,0.81-0.874,1.269-1.374c0.421,1.091,0.705,2.013,1.121,2.87c1.256,2.592,3.39,3.737,6.249,3.45
		c2.343-0.234,4.256-1.331,5.856-2.982c0.532-0.549,0.883-1.273,1.48-2.161c0.617,1.32,0.875,1.995,1.23,2.613
		c1.625,2.83,4.455,3.212,6.777,0.885c0.612-0.614,1.072-1.384,1.581-2.097c0.354-0.496,0.672-1.017,1.081-1.643
		c0.189,0.41,0.306,0.614,0.383,0.833c1.818,5.1,6.879,6.017,10.739,2.409c1.56-1.459,2.913-3.178,4.16-4.922
		c1.249-1.746,2.25-3.67,3.312-5.438C447.692,516.983,448.853,516.813,450.335,516.596z M345.084,107.196
		c-0.044,10.729,8.543,19.421,19.224,19.458c10.715,0.038,19.38-8.541,19.447-19.254c0.067-10.668-8.579-19.424-19.241-19.482
		C353.844,87.861,345.128,96.508,345.084,107.196z M207.111,416.495c-0.186,0.021-0.373,0.04-0.559,0.06
		c-0.524-1.231-1.058-2.459-1.57-3.695c-3.392-8.192-6.803-16.378-10.141-24.592c-0.528-1.299-1.196-1.859-2.648-1.797
		c-2.714,0.117-5.437,0.022-8.155,0.042c-0.586,0.005-1.172,0.122-1.992,0.213c0.474,1.037,0.824,1.829,1.196,2.609
		c5.637,11.83,11.268,23.663,16.93,35.48c0.602,1.255,0.904,2.499,0.893,3.903c-0.051,6.317-0.026,12.635-0.018,18.952
		c0.001,0.841,0.064,1.681,0.097,2.492c3.868,0,7.438,0,11.258,0c0-0.988,0-1.854,0-2.719c0-6.077,0.042-12.155-0.025-18.232
		c-0.02-1.814,0.384-3.425,1.171-5.051c5.601-11.581,11.147-23.188,16.705-34.79c0.4-0.836,0.753-1.694,1.273-2.867
		c-3.56,0-6.733,0.072-9.902-0.032c-1.432-0.047-2.133,0.447-2.669,1.771c-2.249,5.553-4.609,11.062-6.931,16.585
		C210.388,408.717,208.749,412.606,207.111,416.495z M231.316,203.177c-0.414,0.259-0.69,0.41-0.943,0.593
		c-9.7,7.038-19.396,14.081-29.096,21.118c-2.101,1.524-3.088,3.633-3.133,6.167c-0.072,4.087,1.946,7.188,4.969,9.659
		c2.987,2.442,6.456,2.598,9.792,0.65c11.035-6.443,22.065-12.892,33.093-19.348c0.585-0.342,1.123-0.764,1.772-1.209
		C242.236,214.877,236.848,209.105,231.316,203.177z M365.519,216.925c0.901,0.568,1.554,1.006,2.23,1.402
		c10.004,5.852,20.079,11.585,29.979,17.607c3.325,2.023,7.782,1.355,10.112-1.138c1.236-1.323,2.36-2.838,3.179-4.448
		c1.797-3.533,0.791-7.905-2.71-10.366c-8.569-6.023-16.983-12.266-25.464-18.415c-0.571-0.415-1.176-0.785-1.84-1.226
		C375.865,205.847,370.802,211.268,365.519,216.925z M137.191,523.653c-0.363-2.894-0.173-5.67,0.824-8.445
		c2.617-7.288,5.043-14.646,7.5-21.99c0.299-0.895,0.426-1.878,0.454-2.824c0.065-2.222-1.075-3.783-3.029-4.342
		c-1.57-0.449-2.961,0.175-4.004,2.239c-0.892,1.766-1.75,3.656-2.07,5.583c-0.825,4.957-1.394,9.96-1.968,14.955
		c-0.428,3.727-0.686,7.472-1.057,11.205c-0.189,1.907-0.566,3.801-0.664,5.711c-0.068,1.338,0.071,2.719,0.348,4.031
		c0.211,0.998,1.054,1.584,2.126,1.64c1.122,0.058,1.092-0.888,1.412-1.601c1.473-3.274,2.989-6.529,4.537-9.769
		c0.245-0.512,0.731-0.909,1.106-1.359c0.284,1.26,0.1,2.35,0.096,3.44c-0.006,1.668-0.075,3.37,0.218,4.998
		c0.632,3.503,3.426,5.246,6.914,4.514c1.946-0.408,3.527-1.468,4.904-2.851c0.825-0.828,1.602-1.704,2.53-2.698
		c0.316,0.846,0.534,1.519,0.814,2.164c1.205,2.771,3.614,3.833,6.493,2.868c1.755-0.589,3.012-1.787,3.921-3.354
		c0.555-0.956,1.021-1.965,1.5-2.896c0.145-0.063,0.215-0.113,0.29-0.121c0.158-0.015,0.322-0.027,0.478-0.005
		c4.641,0.669,7.906-1.163,9.897-5.383c0.281-0.596,0.731-1.111,1.34-2.017c1.258,2.844,2.217,5.044,0.91,7.863
		c-3.604,7.777-6.288,15.904-8.002,24.305c-0.601,2.942-0.828,6.027-0.718,9.028c0.111,3.06,2.43,4.764,5.346,4.589
		c2.015-0.121,3.154-1.433,4.039-3.003c1.515-2.689,2.139-5.667,2.57-8.684c0.896-6.272,0.966-12.586,0.895-18.906
		c-0.009-0.775-0.001-1.55-0.001-2.487c0.652,0.268,1.081,0.469,1.526,0.624c1.951,0.677,3.828,0.536,5.417-0.836
		c3.502-3.022,5.408-6.871,5.535-11.513c0.025-0.932-0.219-1.919-0.545-2.805c-1.384-3.764-5.487-4.97-8.552-2.388
		c-1.378,1.161-2.388,2.763-3.545,4.181c-0.422,0.517-0.786,1.081-1.31,1.809c-0.338-0.801-0.538-1.308-0.765-1.802
		c-0.233-0.507-0.464-1.019-0.749-1.497c-1.037-1.745-2.814-1.846-3.727-0.064c-0.655,1.277-1.428,2.496-2.19,3.715
		c-1.697,2.712-4.09,3.453-7.356,2.216c0-1.29,0.048-2.641-0.011-3.986c-0.09-2.041-0.607-3.963-2.011-5.521
		c-1.909-2.121-4.731-1.904-6.302,0.442c-0.304,0.455-0.516,1.069-0.942,1.328c-1.8,1.092-2.525,2.885-3.063,4.715
		c-0.912,3.106-2.815,5.526-4.984,7.79c-0.546,0.569-1.204,1.065-1.887,1.463c-2.924,1.7-5.245,0.625-5.751-2.696
		c-0.179-1.175-0.22-2.396-0.126-3.58c0.105-1.346,0.456-2.671,0.652-4.012c0.151-1.028,0.366-2.13-0.859-2.717
		c-1.188-0.569-2.398-0.536-3.331,0.424c-0.882,0.908-1.702,1.923-2.339,3.014C138.919,520.066,138.092,521.881,137.191,523.653z
		 M473.306,386.635c0,21.24,0,42.35,0,63.655c1.987,0,3.812,0.011,5.635-0.003c1.804-0.014,3.606-0.053,5.35-0.079
		c0-21.354,0-42.41,0-63.573C480.562,386.635,477.006,386.635,473.306,386.635z M312.925,516.935
		c-0.533,0.74-0.906,1.22-1.237,1.726c-1.226,1.869-2.324,3.837-3.695,5.592c-0.916,1.171-2.107,2.209-3.364,3.014
		c-1.929,1.234-3.748,0.94-5.254-0.525c-1.832-1.781-2.1-3.382-1.087-5.522c3.847-8.128,6.668-16.602,8.243-25.459
		c0.317-1.783,0.216-3.669,0.093-5.492c-0.082-1.209-0.642-2.32-1.965-2.77c-1.34-0.455-2.397,0.161-3.209,1.066
		c-0.844,0.941-1.689,1.984-2.163,3.136c-1.151,2.799-2.295,5.632-3.057,8.552c-0.962,3.689-1.542,7.479-2.289,11.225
		c-3.988,0.56-6.721,2.366-8.724,5.898c-0.586,1.035-0.972,2.185-1.444,3.284c-1.133,2.642-2.861,4.83-5.292,6.339
		c-3.551,2.204-6.652,0.532-6.688-3.635c-0.016-1.9,0.405-3.804,0.617-5.707c0.097-0.871,0.268-1.751,0.225-2.618
		c-0.056-1.135-0.953-1.61-1.92-1.843c-0.894-0.215-1.559,0.232-1.958,1.023c-0.323,0.641-0.585,1.313-0.867,1.974
		c-1.095,2.572-2.154,5.16-3.298,7.71c-0.366,0.817-0.669,1.777-2.034,2.287c-0.056-0.93-0.158-1.672-0.131-2.409
		c0.053-1.438,0.24-2.872,0.254-4.309c0.009-0.948-0.08-1.928-0.324-2.841c-0.249-0.934-0.794-1.981-1.869-1.902
		c-0.74,0.054-1.601,0.667-2.103,1.279c-0.801,0.979-1.284,2.21-2.017,3.253c-1.556,2.216-3.091,4.46-4.832,6.525
		c-0.729,0.865-1.891,1.498-2.98,1.899c-2.095,0.772-3.955-0.363-4.188-2.578c-0.147-1.403-0.094-2.913,0.278-4.263
		c0.444-1.61,0.183-2.744-1.279-3.502c2.013-3.102,0.736-6.123-2.712-6.345c-1.246-0.08-2.71,0.405-3.789,1.085
		c-3.332,2.099-4.852,5.429-5.473,9.184c-0.393,2.377-0.559,4.793,0.488,7.077c1.394,3.037,4.382,3.66,6.797,1.414
		c0.697-0.648,1.257-1.442,1.889-2.162c0.331-0.378,0.682-0.737,1.083-1.17c0.271,0.541,0.434,0.904,0.627,1.25
		c1.663,2.968,4.476,3.946,7.519,2.457c1.126-0.551,2.165-1.366,3.087-2.229c2.367-2.212,3.984-4.977,5.473-7.821
		c0.341-0.649,0.521-1.468,1.71-2.021c-0.077,1.476-0.173,2.628-0.188,3.781c-0.025,1.91-0.238,3.861,0.071,5.721
		c0.366,2.207,2.467,2.794,4.17,1.313c0.648-0.564,1.221-1.297,1.607-2.064c0.786-1.566,1.414-3.212,2.123-4.817
		c0.231-0.524,0.514-1.025,0.772-1.537c0.477,1.658,0.475,3.231,0.653,4.785c0.386,3.367,2.37,5.104,5.736,5.246
		c2.398,0.102,4.34-0.867,6.081-2.39c0.624-0.546,1.237-1.104,1.905-1.7c1.573,4.199,4.305,5.652,7.558,4.031
		c1.119-0.558,2.078-1.461,3.054-2.275c0.596-0.496,1.084-1.123,1.71-1.786c0.553,0.766,0.983,1.417,1.47,2.023
		c1.583,1.971,3.69,2.96,6.135,2.401c1.494-0.342,3.013-1.141,4.205-2.119c2.698-2.216,4.513-5.155,5.89-8.35
		C313.426,519.376,313.765,518.387,312.925,516.935z M297.301,412.224c5.548-2.94,9.583-6.836,11.313-12.727
		c1.22-4.153,1.416-8.361-0.096-12.495c-1.057-2.891-3.17-4.545-6.297-4.759c-3.578-0.243-6.278,2.079-6.703,5.737
		c-0.436,3.751,1.57,6.447,5.235,7.021c0.535,0.083,1.079,0.103,1.771,0.165c0.145,5.924-3.383,9.295-7.978,12.061
		C295.475,408.911,296.313,410.432,297.301,412.224z M333.415,517.119c1.521-0.582,1.853-0.954,1.94-1.969
		c0.148-1.738-0.88-3.339-2.537-3.934c-1.903-0.684-3.621-0.229-5.201,0.902c-3.586,2.567-5.146,6.268-5.457,10.48
		c-0.138,1.862,0.014,3.893,0.635,5.632c1.146,3.205,4.452,3.806,6.882,1.441c1-0.974,1.833-2.119,2.755-3.201
		c0.164,0.205,0.284,0.316,0.357,0.452c2.348,4.326,5.984,5.114,9.83,2.035c2.927-2.345,4.954-5.401,6.469-8.8
		c0.441-0.991,0.729-2.053-0.195-3.354c-0.556,0.879-0.945,1.545-1.382,2.179c-1.358,1.97-2.639,4.006-4.143,5.859
		c-0.833,1.027-1.949,1.938-3.12,2.555c-2.596,1.366-4.913,0.066-5.086-2.871c-0.088-1.483,0.271-3.005,0.522-4.493
		c0.25-1.474-0.06-2.067-1.443-2.403c-1.298-0.313-1.345,0.656-1.649,1.496c-0.759,2.096-1.523,4.199-2.462,6.219
		c-0.422,0.905-1.16,1.745-1.943,2.382c-1.055,0.856-2.119,0.488-2.709-0.766c-0.201-0.429-0.376-0.9-0.422-1.367
		c-0.374-3.813,0.504-7.3,2.844-10.364c0.381-0.498,0.881-0.947,1.413-1.277c1.739-1.076,3.312-0.4,3.816,1.596
		C333.243,515.999,333.297,516.463,333.415,517.119z M222.72,517.227c-0.257-0.096-0.514-0.191-0.771-0.287
		c-0.403,0.637-0.791,1.284-1.211,1.909c-1.156,1.721-2.239,3.5-3.513,5.129c-1.395,1.782-3.134,3.198-5.4,3.777
		c-1.754,0.449-3.43,0.377-4.955-0.917c0.995-1.451,2.144-2.731,2.836-4.224c1.234-2.66,2.359-5.397,3.208-8.199
		c0.551-1.818-0.561-3.637-2.12-4.407c-1.482-0.732-3.078-0.354-4.511,1.15c-0.546,0.573-1.032,1.223-1.446,1.898
		c-2.132,3.473-2.855,7.248-2.23,11.264c0.642,4.126,3.332,6.431,7.523,6.649c2.297,0.119,4.235-0.662,5.938-2.099
		c2.869-2.421,4.859-5.486,6.226-8.946C222.62,519.098,222.587,518.13,222.72,517.227z M468.708,163.595
		c-2.084-0.053-3.573,1.418-3.618,3.577c-0.046,2.177,1.353,3.729,3.407,3.777c2.059,0.05,3.61-1.46,3.665-3.566
		C472.215,165.278,470.727,163.646,468.708,163.595z M172.168,74.848c1.921-0.048,3.481-1.655,3.458-3.56
		c-0.024-1.896-1.64-3.522-3.518-3.539c-1.972-0.017-3.654,1.736-3.569,3.72C168.621,73.386,170.243,74.896,172.168,74.848z
		 M467.745,181.021c-1.898-0.016-3.516,1.559-3.565,3.47c-0.053,2.003,1.628,3.686,3.629,3.633c1.895-0.049,3.483-1.693,3.459-3.579
		C471.243,182.651,469.63,181.037,467.745,181.021z M179.543,277.267c0.045,1.909,1.662,3.475,3.57,3.457
		c1.893-0.017,3.521-1.634,3.539-3.513c0.018-1.957-1.747-3.657-3.716-3.579C181.041,273.708,179.498,275.361,179.543,277.267z
		 M355.446,326.848c1.915,0.015,3.499-1.538,3.543-3.471c0.044-1.93-1.462-3.545-3.385-3.63c-1.969-0.088-3.725,1.616-3.699,3.59
		C351.929,325.215,353.562,326.834,355.446,326.848z M446.755,245.823c-1.897-0.04-3.541,1.51-3.617,3.413
		c-0.079,1.977,1.611,3.71,3.597,3.686c1.895-0.023,3.485-1.637,3.49-3.542C450.231,247.476,448.658,245.863,446.755,245.823z
		 M457.869,100.599c0.054-1.923-1.453-3.542-3.376-3.627c-2.007-0.089-3.718,1.544-3.715,3.547c0.003,1.86,1.647,3.518,3.518,3.546
		C456.174,104.093,457.816,102.5,457.869,100.599z M145.333,150.744c0.137-1.841-1.381-3.601-3.259-3.779
		c-1.859-0.176-3.613,1.299-3.805,3.2c-0.202,2.002,1.335,3.785,3.345,3.881C143.521,154.137,145.19,152.655,145.333,150.744z
		 M226.491,309.457c0.013-1.879-1.581-3.519-3.477-3.576c-1.989-0.06-3.682,1.64-3.626,3.642c0.053,1.922,1.659,3.469,3.572,3.439
		C224.884,312.932,226.479,311.35,226.491,309.457z M287.754,326.9c-1.926-0.016-3.511,1.514-3.562,3.438
		c-0.049,1.889,1.498,3.547,3.395,3.639c1.949,0.094,3.727-1.633,3.7-3.591C291.262,328.481,289.675,326.917,287.754,326.9z
		 M287.446,8.078c1.919-0.05,3.458-1.645,3.446-3.571c-0.012-2.021-1.724-3.636-3.725-3.516c-1.89,0.114-3.452,1.821-3.362,3.675
		C283.896,6.557,285.571,8.126,287.446,8.078z M430.067,277.091c0.014-1.94-1.492-3.486-3.442-3.531
		c-1.933-0.045-3.559,1.45-3.645,3.351c-0.089,1.967,1.591,3.686,3.588,3.669C428.514,280.565,430.052,279.031,430.067,277.091z
		 M386.786,312.881c1.921-0.028,3.475-1.605,3.477-3.528c0.002-1.913-1.56-3.519-3.46-3.559c-1.963-0.042-3.697,1.709-3.628,3.66
		C383.242,311.339,384.895,312.91,386.786,312.881z M467.654,153.521c1.878,0.011,3.548-1.596,3.599-3.46
		c0.053-1.956-1.687-3.681-3.663-3.634c-1.919,0.046-3.435,1.634-3.419,3.581C464.186,151.957,465.726,153.51,467.654,153.521z
		 M414.435,292.747c1.866-0.014,3.525-1.657,3.548-3.515c0.024-1.969-1.731-3.673-3.701-3.593c-1.914,0.078-3.428,1.7-3.385,3.627
		C410.939,291.194,412.532,292.76,414.435,292.747z M325.469,330.461c0.03-1.962-1.44-3.52-3.383-3.581
		c-2.011-0.064-3.706,1.587-3.676,3.58c0.028,1.88,1.664,3.482,3.556,3.482C323.902,333.943,325.438,332.416,325.469,330.461z
		 M567.789,515.056c-0.038-1.917-1.612-3.437-3.55-3.427c-1.934,0.01-3.515,1.553-3.538,3.452c-0.024,1.988,1.685,3.646,3.685,3.572
		C566.3,518.584,567.827,516.971,567.789,515.056z M254.286,326.878c1.924-0.033,3.469-1.611,3.461-3.534
		c-0.009-1.921-1.568-3.511-3.476-3.543c-1.97-0.034-3.684,1.713-3.609,3.678C250.735,325.378,252.37,326.913,254.286,326.878z
		 M519.297,515.128c0.002-1.912-1.549-3.466-3.492-3.497c-1.955-0.031-3.527,1.447-3.592,3.378c-0.068,2.021,1.57,3.688,3.588,3.649
		C517.71,518.623,519.295,517.023,519.297,515.128z M208.639,303.608c1.929-0.061,3.481-1.654,3.462-3.554
		c-0.021-2-1.719-3.562-3.763-3.459c-1.93,0.096-3.41,1.716-3.326,3.64C205.097,302.146,206.732,303.667,208.639,303.608z
		 M195.148,292.807c1.953,0.035,3.53-1.452,3.587-3.382c0.06-2.027-1.579-3.729-3.564-3.699c-1.865,0.028-3.485,1.68-3.492,3.559
		C191.673,291.209,193.21,292.772,195.148,292.807z M460.54,112.923c-1.88-0.015-3.516,1.583-3.562,3.481
		c-0.046,1.918,1.468,3.521,3.398,3.598c2.037,0.081,3.72-1.535,3.692-3.545C464.043,114.581,462.403,112.938,460.54,112.923z
		 M238.297,313.695c-1.952-0.048-3.523,1.423-3.6,3.369c-0.078,1.969,1.344,3.533,3.301,3.633c2.066,0.104,3.732-1.426,3.756-3.45
		C241.778,315.354,240.209,313.742,238.297,313.695z M374.95,317.184c0.012-1.958-1.475-3.541-3.383-3.6
		c-1.974-0.062-3.652,1.63-3.612,3.638c0.039,1.949,1.571,3.438,3.532,3.434C373.455,320.651,374.937,319.165,374.95,317.184z
		 M152.49,218.3c0.032-1.877-1.549-3.543-3.431-3.614c-1.882-0.071-3.534,1.471-3.629,3.388c-0.1,2.032,1.487,3.694,3.524,3.69
		C150.895,221.761,152.457,220.23,152.49,218.3z M52.417,518.655c1.894,0.027,3.547-1.531,3.62-3.412
		c0.073-1.887-1.464-3.523-3.388-3.606c-2.067-0.088-3.698,1.457-3.693,3.499C48.96,517.083,50.479,518.626,52.417,518.655z
		 M100.917,518.657c1.887,0.039,3.545-1.517,3.625-3.401c0.08-1.879-1.458-3.529-3.373-3.618c-2.052-0.096-3.712,1.462-3.717,3.486
		C97.449,517.042,98.993,518.618,100.917,518.657z M39.827,515.097c-0.017-1.934-1.557-3.456-3.503-3.465
		c-1.936-0.009-3.535,1.514-3.585,3.413c-0.052,1.963,1.668,3.663,3.655,3.61C38.32,518.605,39.845,517.025,39.827,515.097z
		 M338.577,10.601c1.943-0.008,3.521-1.548,3.541-3.455c0.019-1.865-1.584-3.518-3.468-3.576c-2.021-0.062-3.667,1.582-3.62,3.614
		C335.076,9.136,336.604,10.609,338.577,10.601z M257.351,11.57c-0.047-1.988-1.542-3.442-3.514-3.417
		c-1.953,0.025-3.464,1.546-3.475,3.499c-0.012,2.007,1.691,3.659,3.678,3.566C255.976,15.127,257.398,13.561,257.351,11.57z
		 M374.704,17.562c-0.029-1.863-1.683-3.491-3.554-3.5c-1.987-0.009-3.585,1.697-3.498,3.734c0.083,1.949,1.649,3.392,3.613,3.329
		C373.19,21.063,374.735,19.463,374.704,17.562z M241.422,17.801c-0.021-1.932-1.562-3.442-3.521-3.452
		c-1.956-0.009-3.518,1.486-3.565,3.415c-0.049,1.981,1.654,3.662,3.649,3.603C239.913,21.309,241.442,19.722,241.422,17.801z
		 M198.501,45.743c-0.06-1.917-1.666-3.463-3.574-3.44c-2.015,0.023-3.569,1.715-3.456,3.762c0.105,1.911,1.767,3.423,3.659,3.33
		C197.028,49.301,198.56,47.641,198.501,45.743z M437.069,74.407c1.95,0.035,3.521-1.449,3.585-3.387
		c0.065-2.01-1.591-3.721-3.571-3.691c-1.875,0.029-3.477,1.665-3.482,3.556C433.594,72.812,435.13,74.371,437.069,74.407z
		 M450.066,85.294c0.033-1.866-1.562-3.542-3.439-3.614c-1.886-0.073-3.521,1.466-3.608,3.394c-0.092,2.056,1.474,3.713,3.506,3.708
		C448.422,88.778,450.034,87.192,450.066,85.294z M144.431,130.068c-1.951-0.004-3.488,1.499-3.519,3.442
		c-0.033,2.018,1.628,3.671,3.63,3.615c1.897-0.054,3.39-1.651,3.368-3.605C147.887,131.539,146.41,130.073,144.431,130.068z
		 M140.877,164.147c-1.947,0.021-3.491,1.554-3.503,3.478c-0.013,1.872,1.599,3.534,3.467,3.577c1.97,0.045,3.67-1.676,3.614-3.66
		C144.4,165.621,142.825,164.126,140.877,164.147z M454.563,237.604c1.949-0.041,3.435-1.576,3.422-3.538
		c-0.012-1.939-1.549-3.505-3.468-3.533c-1.979-0.028-3.639,1.699-3.554,3.698C451.046,236.193,452.596,237.645,454.563,237.604z
		 M548.129,518.654c1.95-0.023,3.443-1.542,3.452-3.51c0.01-2.065-1.582-3.591-3.659-3.509c-1.961,0.077-3.396,1.621-3.343,3.595
		C544.633,517.186,546.178,518.677,548.129,518.654z M414.255,41.967c-1.948-0.051-3.512,1.423-3.589,3.382
		c-0.078,1.983,1.328,3.54,3.291,3.641c2.075,0.107,3.691-1.404,3.705-3.465C417.674,43.558,416.199,42.018,414.255,41.967z
		 M154.943,104.549c1.885,0.021,3.482-1.557,3.521-3.475c0.04-1.956-1.427-3.535-3.354-3.612c-2.042-0.082-3.668,1.504-3.649,3.559
		C151.478,102.942,153.044,104.529,154.943,104.549z M600.071,515.138c0.007-1.988-1.441-3.476-3.412-3.504
		c-1.988-0.029-3.504,1.397-3.575,3.365c-0.073,2.031,1.533,3.682,3.56,3.657C598.59,518.632,600.065,517.12,600.071,515.138z
		 M583.971,515.061c-0.042-1.935-1.59-3.43-3.552-3.429c-2.064,0-3.581,1.603-3.486,3.682c0.089,1.957,1.669,3.416,3.616,3.338
		C582.468,518.576,584.011,516.956,583.971,515.061z M532.011,518.656c1.935-0.056,3.426-1.618,3.406-3.569
		c-0.021-2.057-1.648-3.564-3.726-3.451c-1.948,0.106-3.355,1.676-3.272,3.653C528.5,517.241,530.07,518.712,532.011,518.656z
		 M465.032,129.551c-1.96-0.027-3.521,1.445-3.588,3.382c-0.067,1.999,1.596,3.678,3.605,3.64c1.94-0.037,3.453-1.585,3.449-3.533
		C468.495,131.088,466.995,129.579,465.032,129.551z M465.032,205.001c1.993,0.006,3.483-1.438,3.516-3.407
		c0.034-2.064-1.569-3.679-3.589-3.613c-1.931,0.063-3.437,1.638-3.415,3.574C461.565,203.531,463.046,204.996,465.032,205.001z
		 M404.327,34.781c0.019-1.956-1.462-3.521-3.389-3.584c-2.037-0.067-3.646,1.527-3.617,3.585c0.027,1.926,1.59,3.478,3.506,3.48
		C402.748,38.263,404.308,36.711,404.327,34.781z M464.15,218.183c0.051-1.936-1.44-3.543-3.364-3.625
		c-2.012-0.086-3.735,1.551-3.726,3.538c0.009,1.875,1.636,3.503,3.524,3.528C462.506,221.648,464.098,220.112,464.15,218.183z
		 M308.362,331.231c-0.036-1.971-1.531-3.435-3.511-3.438c-2.061-0.004-3.568,1.591-3.478,3.681
		c0.085,1.966,1.641,3.413,3.598,3.346C306.9,334.752,308.397,333.167,308.362,331.231z M222.666,22.11
		c-1.89-0.027-3.524,1.543-3.587,3.447c-0.063,1.883,1.484,3.546,3.388,3.642c1.997,0.101,3.686-1.536,3.671-3.558
		C226.124,23.703,224.585,22.138,222.666,22.11z M166.466,249.592c0.051-1.883-1.503-3.53-3.408-3.612
		c-1.912-0.083-3.562,1.41-3.674,3.323c-0.118,2.025,1.457,3.686,3.508,3.699C164.845,253.014,166.414,251.517,166.466,249.592z
		 M321.688,0.953c-1.954-0.046-3.493,1.414-3.561,3.377c-0.07,2.041,1.524,3.71,3.521,3.688c1.909-0.021,3.43-1.579,3.441-3.524
		C325.101,2.514,323.646,1,321.688,0.953z M88.329,515.086c-0.021-1.948-1.542-3.449-3.503-3.453
		c-1.955-0.005-3.522,1.496-3.573,3.42c-0.052,1.962,1.67,3.654,3.662,3.6C86.857,518.598,88.349,517.04,88.329,515.086z
		 M175.749,264.167c0.141-2.056-1.36-3.788-3.345-3.861c-1.885-0.068-3.528,1.461-3.627,3.377c-0.101,1.94,1.34,3.57,3.262,3.688
		C174.02,267.493,175.615,266.115,175.749,264.167z M274.301,327.679c-0.05-1.945-1.616-3.468-3.54-3.442
		c-2.043,0.026-3.563,1.668-3.465,3.742c0.092,1.943,1.653,3.348,3.646,3.279C272.91,331.19,274.352,329.654,274.301,327.679z
		 M152.332,117.077c0.04-1.954-1.432-3.529-3.364-3.6c-1.945-0.071-3.538,1.395-3.623,3.331c-0.09,2.074,1.431,3.695,3.476,3.705
		C150.788,120.522,152.292,119.05,152.332,117.077z M273.986,7.122c-0.049-1.919-1.62-3.405-3.58-3.388
		c-1.97,0.018-3.491,1.517-3.506,3.456c-0.016,2.034,1.621,3.593,3.688,3.514C272.517,10.629,274.035,9.03,273.986,7.122z
		 M404.627,299.912c-0.04-1.937-1.585-3.424-3.55-3.417c-1.923,0.006-3.513,1.558-3.54,3.454c-0.027,1.986,1.654,3.589,3.698,3.524
		C403.193,303.412,404.668,301.862,404.627,299.912z M426.302,61.092c1.965,0.014,3.472-1.455,3.513-3.423
		c0.041-1.97-1.409-3.504-3.37-3.563c-2.072-0.063-3.646,1.475-3.628,3.544C422.834,59.622,424.309,61.078,426.302,61.092z
		 M186.357,57.901c-0.039-1.95-1.58-3.461-3.516-3.45c-2.033,0.013-3.547,1.65-3.45,3.732c0.093,1.984,1.609,3.367,3.613,3.294
		C184.971,61.406,186.396,59.885,186.357,57.901z M503.066,515.078c-0.023-1.939-1.546-3.442-3.488-3.442
		c-1.944-0.001-3.487,1.498-3.531,3.428c-0.045,1.997,1.625,3.641,3.637,3.578C501.623,518.581,503.089,517.036,503.066,515.078z
		 M117.203,511.635c-1.978-0.031-3.477,1.405-3.525,3.376c-0.05,2.069,1.502,3.664,3.541,3.64c1.92-0.022,3.422-1.572,3.419-3.526
		C120.635,513.154,119.17,511.666,117.203,511.635z M68.592,518.657c1.932,0.033,3.483-1.466,3.534-3.416
		c0.052-1.988-1.363-3.527-3.316-3.607c-2.077-0.085-3.66,1.435-3.656,3.508C65.159,517.094,66.653,518.623,68.592,518.657z
		 M342.395,327.785c0.028-1.956-1.447-3.517-3.385-3.58c-1.924-0.063-3.518,1.428-3.594,3.364c-0.083,2.087,1.43,3.671,3.499,3.667
		C340.896,331.232,342.367,329.773,342.395,327.785z M440.852,263.77c0.015-1.934-1.51-3.526-3.424-3.578
		c-2-0.054-3.612,1.586-3.575,3.637c0.036,1.959,1.568,3.469,3.507,3.455C439.254,267.27,440.838,265.677,440.852,263.77z
		 M158.615,234.421c0.097-1.966-1.315-3.536-3.276-3.644c-2.018-0.111-3.572,1.217-3.717,3.179c-0.154,2.083,1.306,3.724,3.37,3.784
		C156.968,237.798,158.519,236.377,158.615,234.421z M23.617,515.105c-0.013-1.993-1.466-3.454-3.45-3.47
		c-2.077-0.017-3.611,1.562-3.536,3.638c0.07,1.94,1.647,3.429,3.585,3.384C22.16,518.612,23.63,517.076,23.617,515.105z
		 M147.989,201.71c0.01-1.992-1.431-3.479-3.408-3.516c-2.079-0.039-3.621,1.511-3.575,3.592c0.043,1.951,1.59,3.452,3.532,3.429
		C146.493,205.192,147.979,203.683,147.989,201.71z M358.623,11.561c0.03-1.985-1.4-3.491-3.374-3.551
		c-2.075-0.063-3.655,1.482-3.626,3.547c0.027,1.987,1.49,3.413,3.499,3.414C357.124,14.971,358.592,13.541,358.623,11.561z
		 M386.415,28.88c1.986,0.008,3.479-1.438,3.519-3.41c0.042-2.068-1.523-3.618-3.603-3.565c-1.994,0.051-3.405,1.524-3.382,3.529
		C382.972,27.429,384.423,28.873,386.415,28.88z M145.376,184.701c-0.04-1.908-1.621-3.435-3.554-3.434
		c-2.054,0.001-3.638,1.649-3.531,3.672c0.102,1.924,1.694,3.364,3.655,3.303C143.891,188.183,145.416,186.608,145.376,184.701z
		 M211.75,35.045c0.005-2.005-1.414-3.468-3.405-3.509c-2.067-0.042-3.637,1.531-3.583,3.592c0.051,1.969,1.557,3.405,3.548,3.383
		C210.308,38.49,211.744,37.042,211.75,35.045z M162.624,89.244c1.925,0.067,3.506-1.419,3.582-3.369
		c0.078-1.993-1.304-3.583-3.235-3.723c-1.978-0.143-3.703,1.474-3.727,3.494C159.221,87.599,160.703,89.176,162.624,89.244z"/>
	<path fill="#FFFFFF" d="M305.281,0c0.409,0.237,0.847,0.437,1.223,0.718c1.771,1.325,2.043,3.651,0.633,5.244
		c-1.358,1.535-3.644,1.611-5.11,0.17c-1.453-1.428-1.431-3.657,0.076-5.114c0.386-0.374,0.837-0.681,1.259-1.018
		C304,0,304.641,0,305.281,0z"/>
	<path fill="#FFFFFF" d="M0,514.081c0.494-0.482,0.98-0.974,1.483-1.447c1.491-1.402,3.769-1.334,5.106,0.146
		c1.277,1.412,1.172,3.608-0.235,4.928c-1.369,1.284-3.566,1.231-4.937-0.141C0.92,517.068,0.471,516.524,0,516
		C0,515.361,0,514.721,0,514.081z"/>
	<path fill="#FFFFFF" d="M616.321,515.521c-0.139,0.284-0.289,0.563-0.415,0.852c-0.81,1.854-2.114,2.567-3.944,2.148
		c-1.642-0.375-2.771-1.79-2.746-3.442c0.021-1.534,1.127-2.953,2.601-3.342c1.757-0.463,3.229,0.274,4.055,2.021
		c0.131,0.277,0.3,0.536,0.45,0.804C616.321,514.881,616.321,515.201,616.321,515.521z"/>
	<path fill="#FFFFFF" d="M261.929,160.208c0.284,1.293,0.537,2.533,0.831,3.763c0.594,2.486,1.289,4.951,1.801,7.453
		c0.954,4.659,2.687,8.96,5.028,13.12c5.096,9.053,9.884,18.28,14.929,27.362c1.919,3.455,1.783,6.534-0.271,9.892
		c-8.758,14.32-17.457,28.678-26.042,43.104c-2.433,4.088-6.51,5.464-10.885,3.891c-1.551-0.558-3.077-1.393-4.375-2.407
		c-3.448-2.692-4.328-6.801-2.405-10.745c5.464-11.205,10.967-22.391,16.452-33.584c0.314-0.641,0.606-1.292,0.977-2.084
		c-0.532-0.588-1.05-1.177-1.584-1.75c-6.601-7.074-13.18-14.167-19.816-21.207c-3.152-3.344-5.153-7.209-6.235-11.686
		c-2.101-8.696-4.449-17.333-6.579-26.022c-0.479-1.954-1.395-3.439-2.813-4.827c-13.474-13.186-23.096-28.715-28.185-46.93
		c-1.03-3.686-1.836-7.454-2.429-11.233c-0.315-2.008-0.179-4.161,0.155-6.183c0.666-4.032,2.593-5.983,5.975-6.557
		c3.981-0.675,7.626,0.873,9.463,4.149c0.619,1.103,0.99,2.348,1.44,3.542c1.915,5.08,3.626,10.247,5.772,15.227
		c2.778,6.447,6.687,12.199,11.987,16.888c8.631,7.636,18.893,10.764,30.248,10.672c8.731-0.071,16.585-3.045,23.931-7.544
		c7.141-4.374,13.396-9.837,19.17-15.859c2.111-2.202,4.489-3.524,7.619-3.313c5.616,0.379,8.724,4.675,6.966,10.006
		c-0.715,2.167-1.788,4.301-3.089,6.178c-11.879,17.14-27.498,29.456-47.289,36.314
		C262.528,159.889,262.395,159.975,261.929,160.208z"/>
	<path fill="#FFFFFF" d="M351.926,159.585c-15.568-5.315-28.427-14.166-39.144-26.41c3.676-4.943,7.399-9.691,8.538-16.195
		c0.839,0.71,1.493,1.237,2.118,1.797c5.195,4.663,10.752,8.78,16.99,12c17.386,8.973,41.458,3.945,53.077-14.352
		c3.498-5.509,6.027-11.441,8.204-17.552c0.697-1.957,1.304-3.949,2.073-5.877c1.457-3.648,4.863-5.829,8.661-5.61
		c3.006,0.173,5.138,1.596,6.155,4.501c0.891,2.543,1.05,5.145,0.62,7.802c-2.85,17.645-10.248,33.194-21.688,46.847
		c-2.358,2.815-4.937,5.454-7.522,8.066c-1.116,1.128-1.788,2.346-2.171,3.873c-2.18,8.678-4.461,17.33-6.638,26.008
		c-0.816,3.256-2.247,6.137-4.529,8.596c-6.474,6.974-12.946,13.948-19.419,20.922c-0.539,0.581-1.074,1.164-1.657,1.795
		c0.267,0.643,0.476,1.238,0.751,1.8c5.001,10.187,9.805,20.478,15.087,30.516c3.634,6.905-0.467,12.282-6.6,13.945
		c-4.112,1.115-7.192-0.174-9.392-3.811c-8.232-13.613-16.426-27.25-24.703-40.835c-1.854-3.042-1.943-5.886-0.221-9.017
		c5.434-9.874,10.776-19.798,16.105-29.729c0.67-1.249,1.177-2.621,1.535-3.995C349.448,169.732,350.641,164.766,351.926,159.585z"
		/>
	<path fill="#FFFFFF" d="M169.331,386.664c0,21.283,0,42.299,0,63.471c-3.903,0-7.703,0-11.706,0
		c-8.631-16.172-18.316-31.856-26.25-48.482c0.368,8.009,0.88,16.016,1.063,24.028c0.184,8.068,0.041,16.144,0.041,24.412
		c-3.601,0-7.071,0-10.72,0c0-21.041,0-42.115,0-63.548c1.904-0.014,3.785-0.032,5.665-0.039c1.914-0.007,3.828-0.002,5.879-0.002
		c8.701,16.33,18.438,32.013,26.387,48.724c-0.402-8.074-0.961-16.146-1.164-24.226c-0.201-8.055-0.044-16.119-0.044-24.338
		C162.194,386.664,165.662,386.664,169.331,386.664z"/>
	<path fill="#FFFFFF" d="M505.615,386.869c0.207-0.163,0.27-0.255,0.331-0.255c8.222,0.004,16.483-0.799,24.643,0.65
		c12.285,2.183,19.573,9.291,22.058,21.549c1.545,7.627,1.366,15.276-1.031,22.748c-3.362,10.479-10.751,16.329-21.438,18.154
		c-2.428,0.415-4.927,0.51-7.397,0.551c-4.875,0.082-9.753,0.024-14.63,0.024c-0.788,0-1.576,0-2.535,0
		C505.615,429.049,505.615,407.983,505.615,386.869z M516.975,441.009c2.658,0,5.06,0.188,7.423-0.033
		c9.286-0.868,14.667-5.663,16.688-14.795c1.263-5.703,1.192-11.431-0.24-17.091c-1.092-4.312-3.256-7.981-7.148-10.392
		c-5.167-3.197-10.881-3.084-16.723-2.909C516.975,410.95,516.975,425.865,516.975,441.009z"/>
	<path fill="#FFFFFF" d="M437.493,411.469c7.574,12.867,15.065,25.595,22.708,38.579c-0.74,0.104-1.237,0.229-1.734,0.232
		c-2.958,0.02-5.921-0.075-8.874,0.046c-1.432,0.059-2.125-0.529-2.789-1.699c-4.896-8.616-9.854-17.197-14.794-25.788
		c-0.396-0.688-0.815-1.363-1.332-2.227c-0.462,0.434-0.882,0.746-1.202,1.14c-2.321,2.853-4.593,5.746-6.947,8.571
		c-0.82,0.984-1.124,2.01-1.109,3.275c0.054,4.638,0.021,9.276,0.021,13.914c0,0.792,0,1.584,0,2.461
		c-1.888,0.594-3.721,0.241-5.519,0.303c-1.83,0.063-3.665,0.014-5.454,0.014c-0.483-1.847-0.645-59.882-0.174-63.715
		c3.563-0.142,7.179-0.063,11.076-0.043c0,9.566,0,18.944,0,28.322c0.153,0.063,0.306,0.128,0.459,0.191
		c0.497-0.55,1.029-1.072,1.486-1.653c6.521-8.299,13.058-16.585,19.519-24.93c1.067-1.379,2.127-2.111,3.974-2.009
		c3.182,0.177,6.379,0.049,9.505,0.049c0.1,0.198,0.148,0.267,0.168,0.343c0.019,0.071,0.04,0.178,0.004,0.224
		C450.209,395.138,443.929,403.203,437.493,411.469z"/>
	<path fill="#FFFFFF" d="M51.51,450.22c-4.445,0-8.432,0-12.544,0c-5.65-9.821-11.306-19.652-17.051-29.637
		c-0.361,0.297-0.684,0.483-0.903,0.754c-2.517,3.106-4.991,6.248-7.54,9.327c-0.73,0.882-0.865,1.815-0.859,2.883
		c0.024,4.799,0.015,9.597,0.005,14.396c-0.002,0.698-0.076,1.396-0.124,2.217c-3.69,0-7.25,0-10.972,0c0-21.129,0-42.201,0-63.273
		c1.752-0.497,8.615-0.548,11.142-0.018c0,9.308,0,18.684,0,28.06c0.164,0.052,0.328,0.104,0.492,0.155
		c0.532-0.658,1.073-1.31,1.596-1.976c6.418-8.177,12.878-16.321,19.211-24.563c1.21-1.574,2.455-2.188,4.412-2.085
		c3.084,0.165,6.184,0.044,9.881,0.044c-6.67,8.594-13.139,16.655-19.576,24.922C36.239,424.269,43.763,437.054,51.51,450.22z"/>
	<path fill="#FFFFFF" d="M305.253,166.091c0.595-0.672,1.03-1.249,1.549-1.737c5.095-4.785,13.096-5.039,18.413-0.6
		c5.545,4.629,6.77,12.394,2.639,18.324c-1.814,2.605-3.924,5.08-6.248,7.239c-4.972,4.618-10.168,8.994-15.281,13.459
		c-0.353,0.308-0.773,0.537-1.191,0.823c-0.401-0.24-0.755-0.417-1.071-0.646c-5.641-4.081-11.13-8.363-15.868-13.479
		c-2.265-2.445-4.478-5.065-6.099-7.952c-2.988-5.322-2.774-10.769,1-15.74c4.564-6.011,13.536-6.966,19.481-2.185
		C303.444,164.294,304.212,165.114,305.253,166.091z"/>
	<path fill="#FFFFFF" d="M250.772,433.124c-1.674,5.761-3.298,11.35-4.95,17.032c-3.828,0-7.55,0-11.543,0
		c6.906-21.208,13.771-42.29,20.675-63.492c4.439,0,8.799,0,13.387,0c6.85,21.026,13.72,42.114,20.718,63.594
		c-2.188,0.012-4.132,0.026-6.075,0.032c-1.909,0.006-3.818,0.001-5.849,0.001c-1.688-5.79-3.335-11.442-5.004-17.167
		C265.009,433.124,258.002,433.124,250.772,433.124z M261.481,395.253c-2.734,9.929-5.311,19.285-7.929,28.79
		c5.356,0,10.494,0,15.922,0C266.822,414.49,264.23,405.156,261.481,395.253z"/>
	<path fill="#FFFFFF" d="M75.861,421.872c0,6.422,0,12.471,0,18.785c9.248,0,18.398,0,27.702,0c0,3.261,0,6.261,0,9.265
		c-1.674,0.453-35.776,0.594-39.085,0.137c0-21.051,0-42.123,0-63.375c12.693,0,25.352,0,38.147,0c0,3.101,0,6.098,0,9.381
		c-8.902,0-17.731,0-26.71,0c0,5.515,0,10.747,0,16.202c7.44,0,14.841,0,22.435,0c0,3.272,0,6.329,0,9.605
		C90.922,421.872,83.519,421.872,75.861,421.872z"/>
	<path fill="#FFFFFF" d="M323.385,442.075c2.261-2.626,4.343-5.045,6.56-7.619c0.721,0.546,1.394,1.052,2.063,1.563
		c4.57,3.488,9.605,5.805,15.471,5.499c2.025-0.105,4.175-0.552,5.994-1.416c5.305-2.521,5.76-9.414,0.916-12.731
		c-1.502-1.029-3.206-1.79-4.877-2.541c-3.642-1.638-7.366-3.098-10.97-4.813c-2.077-0.988-4.149-2.126-5.94-3.552
		c-8.762-6.971-8.58-19.754,0.39-26.488c6.314-4.74,13.499-5.501,21.001-3.849c5.014,1.104,9.389,3.526,13.313,7.356
		c-1.889,2.366-3.751,4.699-5.72,7.165c-0.863-0.602-1.568-1.094-2.273-1.586c-4.31-3.005-9.054-4.396-14.281-3.527
		c-1.532,0.254-3.127,0.828-4.422,1.672c-3.646,2.374-3.984,7.467-0.679,10.29c1.372,1.172,3.042,2.069,4.701,2.815
		c3.567,1.604,7.239,2.974,10.821,4.548c2.042,0.897,4.064,1.886,5.968,3.042c10.372,6.307,9.795,20.485,2.695,27.21
		c-3.563,3.375-7.808,5.293-12.572,5.969c-9.853,1.397-18.703-1.032-26.421-7.384C324.578,443.25,324.086,442.733,323.385,442.075z"
		/>
	<path fill="#FFFFFF" d="M566.566,442.399c2.573-2.988,4.657-5.406,6.882-7.99c0.743,0.595,1.4,1.146,2.084,1.665
		c4.58,3.476,9.625,5.771,15.489,5.442c2.024-0.113,4.172-0.574,5.985-1.452c5.17-2.504,5.646-9.288,0.959-12.601
		c-1.485-1.05-3.186-1.826-4.854-2.578c-3.641-1.641-7.379-3.071-10.969-4.812c-2.281-1.105-4.573-2.368-6.506-3.984
		c-8.099-6.772-7.976-18.78,0.118-25.585c3.348-2.813,7.265-4.36,11.543-4.88c8.563-1.04,16.129,1.306,22.609,7.042
		c0.235,0.209,0.421,0.474,0.79,0.895c-1.824,2.293-3.651,4.589-5.652,7.104c-0.753-0.53-1.441-1.016-2.13-1.502
		c-4.286-3.027-9.01-4.48-14.247-3.647c-1.537,0.245-3.146,0.772-4.453,1.595c-3.818,2.401-4.206,7.519-0.771,10.425
		c1.435,1.215,3.196,2.114,4.929,2.893c3.714,1.668,7.529,3.109,11.254,4.754c1.893,0.835,3.749,1.798,5.502,2.895
		c10.118,6.329,9.741,20.641,1.896,27.563c-3.409,3.008-7.4,4.773-11.823,5.415c-10.214,1.482-19.322-1.089-27.199-7.841
		C567.64,442.903,567.162,442.731,566.566,442.399z"/>
	<path fill="#FFFFFF" d="M248.708,83.88c11.512,0.055,20.65,9.288,20.61,20.825c-0.04,11.495-9.293,20.689-20.801,20.667
		c-11.503-0.021-20.764-9.236-20.741-20.737C227.8,92.018,238.304,83.523,248.708,83.88z"/>
	<path fill="#FFFFFF" d="M450.335,516.596c-1.482,0.217-2.644,0.387-3.909,0.572c-1.062,1.768-2.063,3.691-3.312,5.438
		c-1.247,1.744-2.601,3.463-4.16,4.922c-3.86,3.607-8.921,2.69-10.739-2.409c-0.077-0.219-0.193-0.423-0.383-0.833
		c-0.409,0.626-0.728,1.146-1.081,1.643c-0.509,0.713-0.969,1.482-1.581,2.097c-2.322,2.327-5.152,1.945-6.777-0.885
		c-0.355-0.618-0.613-1.293-1.23-2.613c-0.598,0.888-0.948,1.612-1.48,2.161c-1.601,1.651-3.514,2.748-5.856,2.982
		c-2.859,0.287-4.993-0.858-6.249-3.45c-0.416-0.857-0.7-1.779-1.121-2.87c-0.459,0.5-0.845,0.957-1.269,1.374
		c-1.248,1.23-2.379,2.632-3.793,3.629c-3.619,2.553-7.373,1.478-9.347-2.505c-0.208-0.42-0.386-0.854-0.722-1.603
		c-0.387,0.617-0.633,1.05-0.917,1.455c-0.549,0.783-1.034,1.634-1.695,2.31c-2.285,2.336-5.171,1.963-6.791-0.838
		c-0.35-0.606-0.607-1.267-0.884-1.852c-2.138,1.772-4.252,3.526-6.57,5.448c0.019-0.221-0.056-0.041,0.003,0.068
		c5.159,9.727,4.393,19.539,0.381,29.372c-0.414,1.016-1.096,1.963-1.813,2.808c-2.635,3.106-6.285,3.268-9.244,0.458
		c-1.549-1.471-2.469-3.332-3.116-5.329c-1.07-3.308-1.562-6.746-1.281-10.178c1.569-19.236,4.483-38.25,9.804-56.844
		c0.088-0.308,0.142-0.63,0.267-0.921c0.386-0.896,0.411-2.249,1.935-1.901c1.105,0.253,2.365,2.056,1.838,3.221
		c-0.197,0.436-0.348,0.894-0.51,1.345c-3.763,10.502-6.094,21.341-7.605,32.372c-0.009,0.065,0.055,0.142,0.179,0.435
		c2.247,0.187,4.561,0.603,6.544,2.123c0.411,0.315,1.449,0.189,1.993-0.108c3.637-1.991,6.253-4.891,7.457-8.932
		c0.456-1.53,0.816-3.09,1.306-4.609c0.602-1.866,0.932-1.966,3.18-1.044c-0.169,0.788-0.361,1.617-0.524,2.452
		c-0.411,2.112-0.853,4.221-1.19,6.346c-0.125,0.776-0.036,1.598,0.029,2.392c0.082,0.993,0.367,1.946,1.46,2.248
		c1.016,0.28,1.783-0.383,2.185-1.138c1.116-2.103,2.14-4.262,3.071-6.452c0.4-0.94,0.453-2.023,0.72-3.026
		c0.142-0.533,0.323-1.088,0.625-1.54c0.451-0.675,1.118-0.826,1.896-0.491c0.752,0.323,0.757,0.889,0.683,1.58
		c-0.22,2.058-0.394,4.121-0.565,6.184c-0.039,0.476-0.02,0.96,0.008,1.438c0.223,3.881,2.728,5.438,6.033,3.416
		c3.366-2.059,5.651-5.012,6.062-9.216c0.396-4.052,1.081-8.075,1.639-12.111c0.13-0.942,0.255-1.886,0.423-3.125
		c-0.962,0-1.741,0-2.521,0c-3.199-0.001-6.399,0.029-9.598-0.024c-0.771-0.013-1.564-0.237-2.294-0.508
		c-0.258-0.096-0.523-0.647-0.479-0.945c0.046-0.311,0.421-0.737,0.724-0.809c0.607-0.144,1.264-0.096,1.9-0.097
		c4.155-0.005,8.311-0.003,12.642-0.003c0.31-1.306,0.593-2.528,0.89-3.748c0.172-0.707,0.371-1.616,1.267-1.409
		c0.56,0.13,1.258,0.82,1.394,1.381c0.275,1.133,0.209,2.349,0.301,3.795c0.848,0,1.706,0.004,2.564,0
		c3.279-0.013,6.559-0.028,9.838-0.042c0.399-0.001,0.843-0.101,1.188,0.04c0.387,0.157,0.924,0.509,0.959,0.824
		c0.037,0.343-0.35,0.943-0.688,1.074c-0.725,0.278-1.536,0.438-2.315,0.45c-3.199,0.047-6.398,0.02-9.598,0.021
		c-0.793,0-1.585,0-2.514,0c-0.437,2.564-0.842,4.99-1.266,7.413c-0.454,2.598-0.954,5.188-1.385,7.789
		c-0.387,2.336-0.093,4.636,0.682,6.851c1.036,2.962,3.081,3.84,5.841,2.36c2.854-1.53,4.776-3.961,5.754-7.06
		c0.576-1.826,0.996-3.701,1.498-5.551c0.198-0.732,0.548-1.328,1.414-1.415c1.266-0.126,1.904,0.612,1.591,1.916
		c-0.467,1.94-1.082,3.852-1.416,5.813c-0.238,1.4-0.28,2.883-0.093,4.287c0.099,0.738,0.732,1.644,1.385,2.012
		c0.894,0.504,1.759-0.254,2.173-1.018c1.095-2.023,2.135-4.089,3.013-6.213c0.513-1.24,0.604-2.647,1.01-3.941
		c0.538-1.717,1.198-1.875,2.961-0.899c-0.192,2.551-0.443,5.076-0.542,7.606c-0.039,1.016,0.125,2.086,0.429,3.059
		c0.542,1.738,1.66,2.342,3.505,2.16c1.59-0.157,2.884-0.91,4.007-1.983c2.724-2.601,4.08-6.082,5.867-9.278
		c0.28-0.5,0.043-1.266,0.155-1.889c0.253-1.404,0.479-2.827,0.922-4.175c0.152-0.465,0.922-1.017,1.396-1.004
		c0.488,0.013,1.146,0.571,1.393,1.061c0.295,0.588,0.279,1.354,0.311,2.046c0.02,0.431-0.125,0.869-0.252,1.648
		c0.863-0.298,1.434-0.467,1.981-0.689c1.166-0.472,2.386-0.716,3.395,0.167c1.032,0.904,0.923,2.207,0.488,3.353
		c-0.778,2.047-1.288,4.11-1.088,6.313c0.036,0.397,0.024,0.802,0.081,1.196c0.498,3.538,2.826,4.569,6.082,2.621
		c-0.183-1.214-0.417-2.458-0.55-3.712c-0.404-3.825,0.693-7.273,2.75-10.453c0.345-0.532,0.771-1.026,1.228-1.468
		c1.386-1.345,2.954-1.676,4.356-0.973c1.485,0.745,2.41,2.396,2.156,4.205c-0.165,1.176-0.412,2.399-0.923,3.458
		c-1.517,3.146-3.182,6.22-4.849,9.437c1.294,1.047,2.978,1.09,4.747,0.61c1.921-0.52,3.514-1.617,4.73-3.127
		c1.4-1.735,2.615-3.621,3.891-5.455c0.489-0.705,0.922-1.449,1.439-2.27c1.003,0.856,0.782,1.729,0.49,2.521
		c-1.498,4.058-3.755,7.609-7.333,10.14c-2.815,1.99-5.841,1.877-8.87,0.439c-0.568-0.27-1.086-0.648-1.587-0.952
		c-1.091,0.454-2.082,1.034-3.149,1.281c-3.27,0.755-6.312-0.956-7.449-4.161c-0.877-2.47-0.858-5.019-0.382-7.574
		C450.095,517.958,450.2,517.352,450.335,516.596z M360.537,529.285c-0.423,3.544-0.951,7.228-1.281,10.928
		c-0.433,4.847-0.972,9.717-0.202,14.567c0.308,1.938,0.783,3.952,1.684,5.669c1.426,2.718,4.593,2.944,6.56,0.564
		c0.939-1.138,1.685-2.554,2.126-3.967c1.653-5.302,2.268-10.771,1.947-16.309c-0.162-2.797-0.672-5.585-2.399-7.911
		c-0.584-0.785-1.415-1.584-2.304-1.904C364.752,530.233,362.728,529.848,360.537,529.285z M465.819,512.582
		c-2.854,1.712-4.781,7.522-3.848,11.224C465.125,520.871,467.118,515.232,465.819,512.582z"/>
	<path fill="#FFFFFF" d="M345.084,107.196c0.044-10.688,8.76-19.335,19.43-19.277c10.662,0.058,19.309,8.813,19.241,19.482
		c-0.067,10.713-8.732,19.292-19.447,19.254C353.627,126.618,345.041,117.925,345.084,107.196z"/>
	<path fill="#FFFFFF" d="M207.111,416.495c1.638-3.889,3.277-7.777,4.913-11.667c2.322-5.523,4.682-11.032,6.931-16.585
		c0.536-1.324,1.237-1.818,2.669-1.771c3.168,0.104,6.342,0.032,9.902,0.032c-0.52,1.173-0.873,2.031-1.273,2.867
		c-5.558,11.602-11.104,23.209-16.705,34.79c-0.787,1.626-1.191,3.236-1.171,5.051c0.066,6.077,0.025,12.155,0.025,18.232
		c0,0.865,0,1.73,0,2.719c-3.82,0-7.39,0-11.258,0c-0.033-0.812-0.096-1.651-0.097-2.492c-0.008-6.317-0.034-12.635,0.018-18.952
		c0.011-1.404-0.291-2.648-0.893-3.903c-5.663-11.817-11.293-23.65-16.93-35.48c-0.372-0.78-0.722-1.572-1.196-2.609
		c0.82-0.091,1.406-0.208,1.992-0.213c2.719-0.02,5.441,0.075,8.155-0.042c1.453-0.063,2.121,0.498,2.648,1.797
		c3.338,8.214,6.75,16.399,10.141,24.592c0.512,1.236,1.046,2.464,1.57,3.695C206.738,416.535,206.925,416.515,207.111,416.495z"/>
	<path fill="#FFFFFF" d="M231.316,203.177c5.532,5.928,10.919,11.7,16.454,17.63c-0.649,0.445-1.187,0.867-1.772,1.209
		c-11.027,6.456-22.058,12.905-33.093,19.348c-3.336,1.948-6.805,1.792-9.792-0.65c-3.023-2.471-5.042-5.572-4.969-9.659
		c0.045-2.534,1.032-4.642,3.133-6.167c9.7-7.037,19.396-14.08,29.096-21.118C230.626,203.587,230.903,203.436,231.316,203.177z"/>
	<path fill="#FFFFFF" d="M365.519,216.925c5.283-5.657,10.346-11.078,15.487-16.583c0.664,0.44,1.269,0.811,1.84,1.226
		c8.48,6.149,16.895,12.392,25.464,18.415c3.501,2.461,4.507,6.833,2.71,10.366c-0.818,1.609-1.942,3.125-3.179,4.448
		c-2.33,2.493-6.787,3.161-10.112,1.138c-9.9-6.022-19.976-11.755-29.979-17.607C367.073,217.931,366.42,217.493,365.519,216.925z"
		/>
	<path fill="#FFFFFF" d="M137.191,523.653c0.901-1.771,1.729-3.587,2.731-5.299c0.638-1.091,1.457-2.105,2.339-3.014
		c0.933-0.96,2.144-0.993,3.331-0.424c1.225,0.587,1.01,1.688,0.859,2.717c-0.197,1.341-0.547,2.666-0.652,4.012
		c-0.093,1.185-0.053,2.405,0.126,3.58c0.507,3.321,2.827,4.396,5.751,2.696c0.684-0.397,1.341-0.894,1.887-1.463
		c2.169-2.264,4.073-4.684,4.984-7.79c0.538-1.83,1.263-3.623,3.063-4.715c0.426-0.259,0.638-0.873,0.942-1.328
		c1.571-2.347,4.393-2.563,6.302-0.442c1.403,1.559,1.921,3.48,2.011,5.521c0.059,1.346,0.011,2.696,0.011,3.986
		c3.266,1.237,5.659,0.496,7.356-2.216c0.763-1.219,1.536-2.438,2.19-3.715c0.912-1.781,2.689-1.681,3.727,0.064
		c0.284,0.479,0.515,0.99,0.749,1.497c0.228,0.494,0.427,1.001,0.765,1.802c0.524-0.728,0.888-1.292,1.31-1.809
		c1.157-1.418,2.167-3.02,3.545-4.181c3.064-2.582,7.167-1.376,8.552,2.388c0.326,0.886,0.571,1.873,0.545,2.805
		c-0.126,4.642-2.032,8.49-5.535,11.513c-1.589,1.372-3.466,1.513-5.417,0.836c-0.445-0.155-0.875-0.356-1.526-0.624
		c0,0.938-0.007,1.712,0.001,2.487c0.071,6.32,0.001,12.634-0.895,18.906c-0.431,3.017-1.055,5.994-2.57,8.684
		c-0.885,1.57-2.024,2.882-4.039,3.003c-2.916,0.175-5.235-1.529-5.346-4.589c-0.109-3.001,0.118-6.086,0.718-9.028
		c1.714-8.4,4.397-16.527,8.002-24.305c1.307-2.819,0.348-5.02-0.91-7.863c-0.609,0.905-1.059,1.421-1.34,2.017
		c-1.991,4.22-5.257,6.052-9.897,5.383c-0.156-0.022-0.319-0.01-0.478,0.005c-0.075,0.008-0.146,0.059-0.29,0.121
		c-0.479,0.932-0.945,1.94-1.5,2.896c-0.909,1.567-2.167,2.766-3.921,3.354c-2.879,0.965-5.288-0.098-6.493-2.868
		c-0.281-0.646-0.499-1.318-0.814-2.164c-0.929,0.994-1.706,1.87-2.53,2.698c-1.377,1.383-2.958,2.442-4.904,2.851
		c-3.487,0.732-6.281-1.011-6.914-4.514c-0.293-1.628-0.224-3.33-0.218-4.998c0.004-1.091,0.188-2.181-0.096-3.44
		c-0.375,0.45-0.861,0.848-1.106,1.359c-1.548,3.239-3.064,6.494-4.537,9.769c-0.32,0.713-0.291,1.658-1.412,1.601
		c-1.072-0.056-1.915-0.642-2.126-1.64c-0.277-1.313-0.416-2.693-0.348-4.031c0.097-1.91,0.474-3.804,0.664-5.711
		c0.372-3.733,0.629-7.479,1.057-11.205c0.574-4.995,1.143-9.998,1.968-14.955c0.321-1.927,1.178-3.817,2.07-5.583
		c1.043-2.064,2.435-2.688,4.004-2.239c1.954,0.559,3.094,2.12,3.029,4.342c-0.028,0.946-0.154,1.93-0.454,2.824
		c-2.457,7.345-4.882,14.702-7.5,21.99C137.018,517.983,136.828,520.759,137.191,523.653z M183.788,529.492
		c-0.349,0.665-0.547,0.991-0.697,1.339c-2.799,6.482-4.825,13.201-5.867,20.185c-0.386,2.59-0.874,5.229-0.142,7.857
		c0.524,1.884,1.76,2.238,3.126,0.833c0.542-0.558,1.001-1.271,1.281-1.997c0.542-1.41,1.051-2.854,1.363-4.328
		c1.555-7.327,1.607-14.753,1.305-22.193C184.14,530.738,183.968,530.294,183.788,529.492z M196.924,517.676
		c-0.207-0.528-0.405-1.68-1.037-2.497c-1.04-1.347-2.908-1.273-4.462,0.084c-2.466,2.154-3.861,5.04-5,8.02
		c-0.26,0.681,0.197,2.36,0.363,2.366c1.267,0.041,1.307,1.351,2.068,1.745c0.788,0.409,1.754,0.719,2.622,0.674
		c1.463-0.076,2.391-1.169,3.121-2.346C196.013,523.441,196.609,520.902,196.924,517.676z M162.323,518.411
		c-1.544,2.552-2.569,5.272-1.724,8.34c0.661,2.398,2.797,2.947,4.596,1.234c1.17-1.114,1.895-2.512,2.201-3.776
		C165.651,522.214,164.093,520.434,162.323,518.411z M138.664,505.944c0.556-1.551,1.187-3.08,1.651-4.657
		c0.899-3.049,1.751-6.114,2.521-9.198c0.251-1.009,0.485-2.165-0.548-3.022C140.08,490.884,138.028,499.685,138.664,505.944z
		 M168.003,520.43c0-1.292,0.101-2.237-0.027-3.149c-0.14-0.999-0.345-2.042-0.792-2.93c-0.542-1.076-1.698-0.981-2.146,0.133
		c-0.22,0.546-0.269,1.241-0.157,1.823C165.206,517.998,166.125,519.315,168.003,520.43z"/>
	<path fill="#FFFFFF" d="M473.306,386.635c3.7,0,7.256,0,10.984,0c0,21.163,0,42.22,0,63.573c-1.743,0.026-3.546,0.065-5.35,0.079
		c-1.823,0.014-3.647,0.003-5.635,0.003C473.306,428.985,473.306,407.875,473.306,386.635z"/>
	<path fill="#FFFFFF" d="M312.925,516.935c0.84,1.452,0.501,2.441,0.093,3.389c-1.377,3.194-3.191,6.134-5.89,8.35
		c-1.192,0.979-2.711,1.777-4.205,2.119c-2.445,0.559-4.552-0.431-6.135-2.401c-0.487-0.606-0.917-1.258-1.47-2.023
		c-0.626,0.663-1.114,1.29-1.71,1.786c-0.976,0.814-1.935,1.718-3.054,2.275c-3.253,1.621-5.985,0.168-7.558-4.031
		c-0.667,0.596-1.281,1.154-1.905,1.7c-1.741,1.522-3.683,2.491-6.081,2.39c-3.366-0.143-5.35-1.879-5.736-5.246
		c-0.178-1.554-0.176-3.127-0.653-4.785c-0.259,0.512-0.542,1.013-0.772,1.537c-0.709,1.605-1.337,3.251-2.123,4.817
		c-0.386,0.768-0.958,1.5-1.607,2.064c-1.703,1.481-3.804,0.895-4.17-1.313c-0.309-1.859-0.096-3.811-0.071-5.721
		c0.015-1.153,0.111-2.306,0.188-3.781c-1.188,0.554-1.369,1.372-1.71,2.021c-1.489,2.845-3.106,5.609-5.473,7.821
		c-0.922,0.862-1.961,1.678-3.087,2.229c-3.043,1.489-5.856,0.511-7.519-2.457c-0.194-0.346-0.357-0.709-0.627-1.25
		c-0.402,0.433-0.752,0.792-1.083,1.17c-0.632,0.72-1.192,1.514-1.889,2.162c-2.416,2.246-5.404,1.623-6.797-1.414
		c-1.047-2.284-0.881-4.7-0.488-7.077c0.621-3.755,2.141-7.085,5.473-9.184c1.079-0.68,2.543-1.165,3.789-1.085
		c3.448,0.222,4.725,3.243,2.712,6.345c1.462,0.758,1.724,1.892,1.279,3.502c-0.372,1.35-0.425,2.859-0.278,4.263
		c0.233,2.215,2.093,3.351,4.188,2.578c1.089-0.401,2.25-1.034,2.98-1.899c1.741-2.065,3.276-4.31,4.832-6.525
		c0.733-1.043,1.216-2.274,2.017-3.253c0.502-0.612,1.363-1.226,2.103-1.279c1.075-0.079,1.62,0.969,1.869,1.902
		c0.244,0.913,0.333,1.893,0.324,2.841c-0.014,1.437-0.201,2.871-0.254,4.309c-0.027,0.737,0.075,1.479,0.131,2.409
		c1.365-0.51,1.668-1.47,2.034-2.287c1.144-2.55,2.204-5.138,3.298-7.71c0.281-0.661,0.543-1.333,0.867-1.974
		c0.399-0.791,1.064-1.238,1.958-1.023c0.967,0.232,1.864,0.708,1.92,1.843c0.043,0.867-0.128,1.747-0.225,2.618
		c-0.212,1.903-0.633,3.807-0.617,5.707c0.036,4.167,3.136,5.839,6.688,3.635c2.431-1.509,4.159-3.697,5.292-6.339
		c0.472-1.1,0.857-2.249,1.444-3.284c2.003-3.532,4.735-5.339,8.725-5.897c0.746-3.747,1.326-7.536,2.288-11.226
		c0.762-2.92,1.906-5.753,3.057-8.552c0.474-1.151,1.318-2.194,2.163-3.136c0.812-0.905,1.87-1.521,3.209-1.066
		c1.324,0.449,1.883,1.561,1.965,2.77c0.123,1.823,0.224,3.709-0.093,5.492c-1.575,8.857-4.396,17.331-8.243,25.459
		c-1.013,2.141-0.745,3.741,1.087,5.522c1.506,1.466,3.326,1.76,5.254,0.525c1.256-0.805,2.448-1.843,3.364-3.014
		c1.371-1.755,2.47-3.723,3.695-5.592C312.019,518.155,312.392,517.675,312.925,516.935z M234.085,524.093
		c0.034,0.411,0.04,1.132,0.164,1.833c0.168,0.958,0.466,2.074,1.563,2.118c0.74,0.029,1.71-0.457,2.217-1.03
		c0.825-0.934,1.491-2.071,1.979-3.226c0.74-1.748,1.1-3.672,1.952-5.354c0.558-1.102,0.525-2.049,0.235-3.079
		c-0.507-1.806-2.101-2.443-3.713-1.426c-0.718,0.453-1.36,1.113-1.861,1.807C234.895,518.128,234.134,520.852,234.085,524.093z
		 M296.544,517.648c0.137-0.057,0.354-0.077,0.398-0.176c3.597-7.97,6.226-16.204,6.73-25.004c0.023-0.407-0.204-0.83-0.337-1.334
		C299.463,494.623,295.295,511.169,296.544,517.648z M286.234,524.412c0,0.528-0.025,0.771,0.004,1.007
		c0.137,1.107,0.171,2.294,1.43,2.809c1.223,0.5,2.27-0.097,3.024-0.899c1.192-1.268,2.234-2.687,3.235-4.114
		c0.278-0.397,0.279-1.059,0.249-1.59c-0.103-1.829-0.269-3.653-0.423-5.479c-0.116-1.375-1.027-2-2.273-1.44
		c-0.632,0.283-1.225,0.773-1.683,1.302C287.641,518.497,286.491,521.421,286.234,524.412z"/>
	<path fill="#FFFFFF" d="M297.301,412.224c-0.988-1.792-1.826-3.313-2.754-4.997c4.595-2.766,8.123-6.137,7.978-12.061
		c-0.692-0.063-1.237-0.082-1.771-0.165c-3.666-0.573-5.671-3.27-5.235-7.021c0.425-3.658,3.125-5.98,6.703-5.737
		c3.127,0.214,5.241,1.868,6.297,4.759c1.512,4.134,1.315,8.342,0.096,12.495C306.884,405.388,302.849,409.284,297.301,412.224z"/>
	<path fill="#FFFFFF" d="M333.415,517.119c-0.117-0.655-0.172-1.12-0.286-1.57c-0.505-1.996-2.077-2.672-3.816-1.596
		c-0.532,0.33-1.032,0.779-1.413,1.277c-2.34,3.064-3.218,6.552-2.844,10.364c0.046,0.467,0.221,0.938,0.422,1.367
		c0.59,1.254,1.654,1.622,2.709,0.766c0.783-0.637,1.521-1.477,1.943-2.382c0.938-2.02,1.703-4.123,2.462-6.219
		c0.305-0.84,0.352-1.81,1.649-1.496c1.384,0.336,1.693,0.93,1.443,2.403c-0.252,1.488-0.61,3.01-0.522,4.493
		c0.173,2.938,2.49,4.237,5.086,2.871c1.171-0.616,2.287-1.527,3.12-2.555c1.504-1.854,2.784-3.89,4.143-5.859
		c0.437-0.634,0.826-1.3,1.382-2.179c0.924,1.301,0.637,2.362,0.195,3.354c-1.515,3.398-3.542,6.455-6.469,8.8
		c-3.846,3.079-7.482,2.291-9.83-2.035c-0.073-0.136-0.193-0.247-0.357-0.452c-0.922,1.082-1.755,2.228-2.755,3.201
		c-2.43,2.364-5.736,1.764-6.882-1.441c-0.621-1.739-0.772-3.77-0.635-5.632c0.312-4.213,1.871-7.913,5.457-10.48
		c1.58-1.131,3.298-1.586,5.201-0.902c1.657,0.595,2.686,2.195,2.537,3.934C335.267,516.165,334.936,516.537,333.415,517.119z"/>
	<path fill="#FFFFFF" d="M222.72,517.227c-0.132,0.903-0.1,1.871-0.426,2.698c-1.367,3.46-3.356,6.525-6.226,8.946
		c-1.702,1.437-3.64,2.218-5.938,2.099c-4.191-0.219-6.882-2.523-7.523-6.649c-0.625-4.016,0.098-7.791,2.23-11.264
		c0.415-0.676,0.9-1.325,1.446-1.898c1.433-1.505,3.029-1.883,4.511-1.15c1.559,0.771,2.671,2.589,2.12,4.407
		c-0.85,2.802-1.974,5.539-3.208,8.199c-0.693,1.492-1.841,2.772-2.836,4.224c1.525,1.294,3.2,1.366,4.955,0.917
		c2.266-0.579,4.006-1.995,5.4-3.777c1.274-1.629,2.357-3.408,3.513-5.129c0.42-0.625,0.809-1.272,1.211-1.909
		C222.206,517.036,222.462,517.131,222.72,517.227z M205.652,524.325c2.079-2.257,4.414-7.334,4.517-9.812
		c0.026-0.627-0.237-1.266-0.386-1.992C206.776,514.097,204.841,519.8,205.652,524.325z"/>
	<path fill="#FFFFFF" d="M468.708,163.595c2.02,0.051,3.508,1.684,3.454,3.788c-0.055,2.105-1.606,3.616-3.665,3.566
		c-2.055-0.049-3.453-1.6-3.407-3.777C465.134,165.013,466.624,163.542,468.708,163.595z"/>
	<path fill="#FFFFFF" d="M172.168,74.848c-1.925,0.048-3.547-1.462-3.63-3.379c-0.085-1.984,1.597-3.737,3.569-3.72
		c1.878,0.017,3.494,1.643,3.518,3.539C175.65,73.193,174.089,74.8,172.168,74.848z"/>
	<path fill="#FFFFFF" d="M467.745,181.021c1.886,0.016,3.498,1.629,3.522,3.524c0.024,1.886-1.564,3.53-3.459,3.579
		c-2.001,0.052-3.682-1.63-3.629-3.633C464.229,182.58,465.846,181.005,467.745,181.021z"/>
	<path fill="#FFFFFF" d="M179.543,277.267c-0.045-1.906,1.498-3.56,3.393-3.635c1.969-0.079,3.734,1.622,3.716,3.579
		c-0.018,1.879-1.646,3.496-3.539,3.513C181.205,280.742,179.588,279.176,179.543,277.267z"/>
	<path fill="#FFFFFF" d="M355.446,326.848c-1.884-0.014-3.517-1.633-3.541-3.511c-0.025-1.974,1.73-3.678,3.699-3.59
		c1.923,0.085,3.429,1.7,3.385,3.63C358.945,325.31,357.361,326.863,355.446,326.848z"/>
	<path fill="#FFFFFF" d="M446.755,245.823c1.902,0.04,3.476,1.652,3.47,3.557c-0.005,1.905-1.596,3.519-3.49,3.542
		c-1.985,0.024-3.676-1.709-3.597-3.686C443.214,247.333,444.858,245.784,446.755,245.823z"/>
	<path fill="#FFFFFF" d="M457.869,100.599c-0.053,1.902-1.694,3.495-3.573,3.466c-1.87-0.028-3.515-1.686-3.518-3.546
		c-0.003-2.003,1.708-3.637,3.715-3.547C456.416,97.057,457.922,98.676,457.869,100.599z"/>
	<path fill="#FFFFFF" d="M145.333,150.744c-0.143,1.911-1.812,3.394-3.719,3.302c-2.01-0.096-3.547-1.879-3.345-3.881
		c0.191-1.901,1.946-3.376,3.805-3.2C143.952,147.143,145.47,148.903,145.333,150.744z"/>
	<path fill="#FFFFFF" d="M226.491,309.457c-0.013,1.894-1.607,3.476-3.532,3.505c-1.913,0.029-3.519-1.518-3.572-3.439
		c-0.055-2.002,1.637-3.701,3.626-3.642C224.91,305.938,226.504,307.578,226.491,309.457z"/>
	<path fill="#FFFFFF" d="M287.754,326.9c1.921,0.017,3.507,1.581,3.533,3.485c0.027,1.958-1.751,3.685-3.7,3.591
		c-1.897-0.092-3.444-1.75-3.395-3.639C284.243,328.414,285.828,326.884,287.754,326.9z"/>
	<path fill="#FFFFFF" d="M287.446,8.078c-1.875,0.049-3.55-1.521-3.641-3.412c-0.09-1.854,1.472-3.561,3.362-3.675
		c2.001-0.121,3.713,1.495,3.725,3.516C290.903,6.433,289.365,8.028,287.446,8.078z"/>
	<path fill="#FFFFFF" d="M430.067,277.091c-0.015,1.939-1.553,3.474-3.499,3.489c-1.997,0.016-3.677-1.702-3.588-3.669
		c0.086-1.901,1.712-3.396,3.645-3.351C428.575,273.605,430.081,275.151,430.067,277.091z"/>
	<path fill="#FFFFFF" d="M386.786,312.881c-1.891,0.028-3.544-1.542-3.611-3.427c-0.069-1.951,1.665-3.702,3.628-3.66
		c1.9,0.04,3.462,1.646,3.46,3.559C390.26,311.276,388.707,312.853,386.786,312.881z"/>
	<path fill="#FFFFFF" d="M467.654,153.521c-1.928-0.011-3.468-1.564-3.483-3.514c-0.016-1.947,1.5-3.535,3.419-3.581
		c1.977-0.047,3.716,1.678,3.663,3.634C471.202,151.925,469.532,153.532,467.654,153.521z"/>
	<path fill="#FFFFFF" d="M414.435,292.747c-1.903,0.014-3.496-1.553-3.538-3.48c-0.043-1.927,1.471-3.549,3.385-3.627
		c1.97-0.08,3.726,1.624,3.701,3.593C417.96,291.089,416.301,292.733,414.435,292.747z"/>
	<path fill="#FFFFFF" d="M325.469,330.461c-0.031,1.954-1.567,3.481-3.503,3.481c-1.892,0-3.527-1.603-3.556-3.482
		c-0.03-1.993,1.665-3.645,3.676-3.58C324.029,326.942,325.5,328.5,325.469,330.461z"/>
	<path fill="#FFFFFF" d="M567.789,515.056c0.038,1.915-1.488,3.528-3.403,3.598c-2,0.073-3.709-1.584-3.685-3.572
		c0.023-1.899,1.604-3.442,3.538-3.452C566.176,511.62,567.75,513.139,567.789,515.056z"/>
	<path fill="#FFFFFF" d="M254.286,326.878c-1.916,0.034-3.551-1.5-3.624-3.399c-0.075-1.965,1.639-3.712,3.609-3.678
		c1.908,0.032,3.467,1.622,3.476,3.543C257.755,325.267,256.21,326.845,254.286,326.878z"/>
	<path fill="#FFFFFF" d="M519.297,515.128c-0.002,1.895-1.587,3.494-3.496,3.53c-2.018,0.038-3.656-1.629-3.588-3.649
		c0.064-1.931,1.637-3.409,3.592-3.378C517.749,511.663,519.299,513.216,519.297,515.128z"/>
	<path fill="#FFFFFF" d="M208.639,303.608c-1.907,0.059-3.542-1.462-3.626-3.373c-0.084-1.924,1.396-3.544,3.326-3.64
		c2.043-0.103,3.742,1.459,3.763,3.459C212.121,301.954,210.568,303.547,208.639,303.608z"/>
	<path fill="#FFFFFF" d="M195.148,292.807c-1.938-0.035-3.476-1.598-3.469-3.522c0.007-1.879,1.627-3.53,3.492-3.559
		c1.985-0.029,3.625,1.672,3.564,3.699C198.678,291.355,197.101,292.842,195.148,292.807z"/>
	<path fill="#FFFFFF" d="M460.54,112.923c1.863,0.016,3.504,1.658,3.529,3.534c0.027,2.01-1.655,3.625-3.692,3.545
		c-1.931-0.077-3.444-1.68-3.398-3.598C457.024,114.506,458.66,112.908,460.54,112.923z"/>
	<path fill="#FFFFFF" d="M238.297,313.695c1.912,0.047,3.481,1.659,3.458,3.552c-0.024,2.024-1.69,3.555-3.756,3.45
		c-1.958-0.1-3.379-1.664-3.301-3.633C234.774,315.118,236.345,313.647,238.297,313.695z"/>
	<path fill="#FFFFFF" d="M374.95,317.184c-0.013,1.98-1.495,3.467-3.463,3.472c-1.961,0.005-3.493-1.484-3.532-3.434
		c-0.04-2.008,1.639-3.699,3.612-3.638C373.475,313.643,374.961,315.226,374.95,317.184z"/>
	<path fill="#FFFFFF" d="M152.49,218.3c-0.033,1.93-1.595,3.461-3.536,3.464c-2.037,0.004-3.624-1.658-3.524-3.69
		c0.095-1.917,1.747-3.459,3.629-3.388C150.941,214.757,152.522,216.423,152.49,218.3z"/>
	<path fill="#FFFFFF" d="M52.417,518.655c-1.939-0.028-3.458-1.571-3.462-3.52c-0.005-2.042,1.626-3.587,3.693-3.499
		c1.924,0.083,3.461,1.72,3.388,3.606C55.964,517.124,54.312,518.682,52.417,518.655z"/>
	<path fill="#FFFFFF" d="M100.917,518.657c-1.924-0.039-3.468-1.614-3.464-3.533c0.004-2.024,1.665-3.582,3.717-3.486
		c1.915,0.089,3.452,1.739,3.373,3.618C104.462,517.14,102.804,518.696,100.917,518.657z"/>
	<path fill="#FFFFFF" d="M39.827,515.097c0.018,1.928-1.507,3.508-3.434,3.559c-1.986,0.053-3.707-1.647-3.655-3.61
		c0.05-1.899,1.649-3.422,3.585-3.413C38.271,511.641,39.81,513.164,39.827,515.097z"/>
	<path fill="#FFFFFF" d="M338.577,10.601c-1.973,0.008-3.501-1.465-3.547-3.417c-0.047-2.032,1.6-3.676,3.62-3.614
		c1.884,0.058,3.486,1.711,3.468,3.576C342.098,9.053,340.52,10.593,338.577,10.601z"/>
	<path fill="#FFFFFF" d="M257.351,11.57c0.047,1.991-1.375,3.558-3.311,3.647c-1.986,0.093-3.69-1.56-3.678-3.566
		c0.011-1.952,1.522-3.474,3.475-3.499C255.809,8.127,257.304,9.582,257.351,11.57z"/>
	<path fill="#FFFFFF" d="M374.704,17.562c0.031,1.901-1.514,3.501-3.438,3.563c-1.964,0.063-3.53-1.379-3.613-3.329
		c-0.087-2.037,1.511-3.743,3.498-3.734C373.021,14.071,374.674,15.699,374.704,17.562z"/>
	<path fill="#FFFFFF" d="M241.422,17.801c0.021,1.921-1.509,3.508-3.437,3.565c-1.995,0.06-3.698-1.622-3.649-3.603
		c0.048-1.928,1.61-3.424,3.565-3.415C239.86,14.359,241.401,15.87,241.422,17.801z"/>
	<path fill="#FFFFFF" d="M198.501,45.743c0.059,1.898-1.473,3.558-3.371,3.651c-1.892,0.093-3.554-1.419-3.659-3.33
		c-0.113-2.047,1.441-3.738,3.456-3.762C196.836,42.28,198.441,43.825,198.501,45.743z"/>
	<path fill="#FFFFFF" d="M437.069,74.407c-1.938-0.036-3.475-1.595-3.469-3.521c0.006-1.892,1.607-3.527,3.482-3.556
		c1.98-0.03,3.637,1.681,3.571,3.691C440.59,72.958,439.019,74.442,437.069,74.407z"/>
	<path fill="#FFFFFF" d="M450.066,85.294c-0.032,1.898-1.644,3.484-3.542,3.488c-2.032,0.004-3.598-1.652-3.506-3.708
		c0.087-1.928,1.723-3.467,3.608-3.394C448.504,81.753,450.099,83.428,450.066,85.294z"/>
	<path fill="#FFFFFF" d="M144.431,130.068c1.979,0.004,3.456,1.47,3.479,3.452c0.022,1.954-1.471,3.551-3.368,3.605
		c-2.002,0.056-3.663-1.598-3.63-3.615C140.943,131.567,142.48,130.064,144.431,130.068z"/>
	<path fill="#FFFFFF" d="M140.877,164.147c1.948-0.021,3.523,1.474,3.578,3.395c0.056,1.983-1.645,3.705-3.614,3.66
		c-1.868-0.042-3.479-1.705-3.467-3.577C137.386,165.701,138.93,164.168,140.877,164.147z"/>
	<path fill="#FFFFFF" d="M454.563,237.604c-1.967,0.042-3.517-1.411-3.6-3.373c-0.085-1.999,1.575-3.727,3.554-3.698
		c1.919,0.028,3.456,1.594,3.468,3.533C457.998,236.027,456.512,237.563,454.563,237.604z"/>
	<path fill="#FFFFFF" d="M548.129,518.654c-1.951,0.023-3.496-1.468-3.55-3.424c-0.054-1.974,1.382-3.518,3.343-3.595
		c2.077-0.082,3.669,1.443,3.659,3.509C551.573,517.112,550.08,518.63,548.129,518.654z"/>
	<path fill="#FFFFFF" d="M414.255,41.967c1.943,0.05,3.419,1.591,3.407,3.558c-0.014,2.061-1.63,3.572-3.705,3.465
		c-1.963-0.101-3.369-1.657-3.291-3.641C410.744,43.39,412.307,41.917,414.255,41.967z"/>
	<path fill="#FFFFFF" d="M154.943,104.549c-1.898-0.02-3.465-1.607-3.482-3.528c-0.019-2.055,1.607-3.641,3.649-3.559
		c1.927,0.077,3.394,1.656,3.354,3.612C158.425,102.993,156.828,104.57,154.943,104.549z"/>
	<path fill="#FFFFFF" d="M600.071,515.138c-0.006,1.981-1.48,3.494-3.428,3.519c-2.026,0.024-3.633-1.626-3.56-3.657
		c0.071-1.968,1.587-3.395,3.575-3.365C598.629,511.663,600.078,513.15,600.071,515.138z"/>
	<path fill="#FFFFFF" d="M583.971,515.061c0.04,1.895-1.503,3.515-3.422,3.591c-1.947,0.078-3.527-1.381-3.616-3.338
		c-0.095-2.079,1.422-3.682,3.486-3.682C582.381,511.631,583.929,513.126,583.971,515.061z"/>
	<path fill="#FFFFFF" d="M532.011,518.656c-1.941,0.057-3.511-1.415-3.592-3.367c-0.083-1.978,1.324-3.547,3.272-3.653
		c2.077-0.113,3.705,1.395,3.726,3.451C535.437,517.038,533.946,518.6,532.011,518.656z"/>
	<path fill="#FFFFFF" d="M465.032,129.551c1.963,0.027,3.463,1.537,3.467,3.489c0.004,1.947-1.509,3.496-3.449,3.533
		c-2.01,0.038-3.673-1.641-3.605-3.64C461.51,130.996,463.072,129.524,465.032,129.551z"/>
	<path fill="#FFFFFF" d="M465.032,205.001c-1.985-0.006-3.467-1.47-3.488-3.446c-0.021-1.937,1.484-3.512,3.415-3.574
		c2.02-0.065,3.623,1.549,3.589,3.613C468.515,203.563,467.025,205.008,465.032,205.001z"/>
	<path fill="#FFFFFF" d="M404.327,34.781c-0.019,1.93-1.579,3.482-3.5,3.48c-1.916-0.002-3.479-1.554-3.506-3.48
		c-0.028-2.058,1.58-3.652,3.617-3.585C402.865,31.26,404.345,32.825,404.327,34.781z"/>
	<path fill="#FFFFFF" d="M464.15,218.183c-0.052,1.929-1.644,3.465-3.565,3.44c-1.889-0.025-3.516-1.652-3.524-3.528
		c-0.01-1.987,1.714-3.625,3.726-3.538C462.709,214.64,464.201,216.248,464.15,218.183z"/>
	<path fill="#FFFFFF" d="M308.362,331.231c0.035,1.937-1.462,3.521-3.391,3.589c-1.957,0.067-3.513-1.38-3.598-3.346
		c-0.09-2.09,1.417-3.685,3.478-3.681C306.831,327.796,308.326,329.26,308.362,331.231z"/>
	<path fill="#FFFFFF" d="M222.666,22.11c1.92,0.028,3.458,1.592,3.472,3.53c0.014,2.022-1.675,3.659-3.671,3.558
		c-1.904-0.095-3.451-1.758-3.388-3.642C219.141,23.654,220.776,22.083,222.666,22.11z"/>
	<path fill="#FFFFFF" d="M166.466,249.592c-0.053,1.925-1.622,3.422-3.574,3.41c-2.051-0.013-3.625-1.673-3.508-3.699
		c0.112-1.914,1.762-3.406,3.674-3.323C164.963,246.062,166.518,247.709,166.466,249.592z"/>
	<path fill="#FFFFFF" d="M321.688,0.953c1.958,0.046,3.413,1.561,3.401,3.54c-0.012,1.945-1.532,3.503-3.441,3.524
		c-1.996,0.022-3.591-1.647-3.521-3.688C318.195,2.367,319.734,0.907,321.688,0.953z"/>
	<path fill="#FFFFFF" d="M88.329,515.086c0.02,1.953-1.472,3.512-3.414,3.566c-1.992,0.055-3.714-1.638-3.662-3.6
		c0.051-1.924,1.619-3.425,3.573-3.42C86.787,511.637,88.308,513.138,88.329,515.086z"/>
	<path fill="#FFFFFF" d="M175.749,264.167c-0.134,1.948-1.729,3.326-3.71,3.204c-1.922-0.118-3.363-1.748-3.262-3.688
		c0.1-1.916,1.743-3.445,3.627-3.377C174.389,260.379,175.89,262.111,175.749,264.167z"/>
	<path fill="#FFFFFF" d="M274.301,327.679c0.051,1.975-1.392,3.511-3.359,3.579c-1.993,0.068-3.554-1.336-3.646-3.279
		c-0.098-2.074,1.422-3.716,3.465-3.742C272.685,324.211,274.251,325.734,274.301,327.679z"/>
	<path fill="#FFFFFF" d="M152.332,117.077c-0.04,1.973-1.544,3.445-3.511,3.436c-2.045-0.01-3.566-1.63-3.476-3.705
		c0.084-1.937,1.678-3.402,3.623-3.331C150.9,113.548,152.372,115.123,152.332,117.077z"/>
	<path fill="#FFFFFF" d="M273.986,7.122c0.049,1.908-1.469,3.507-3.398,3.582c-2.067,0.08-3.704-1.48-3.688-3.514
		c0.015-1.939,1.537-3.438,3.506-3.456C272.366,3.717,273.937,5.203,273.986,7.122z"/>
	<path fill="#FFFFFF" d="M404.627,299.912c0.041,1.95-1.435,3.5-3.392,3.562c-2.044,0.064-3.726-1.538-3.698-3.524
		c0.027-1.896,1.617-3.448,3.54-3.454C403.042,296.488,404.587,297.975,404.627,299.912z"/>
	<path fill="#FFFFFF" d="M426.302,61.092c-1.993-0.014-3.468-1.47-3.485-3.442c-0.019-2.069,1.556-3.606,3.628-3.544
		c1.961,0.059,3.411,1.592,3.37,3.563C429.774,59.637,428.267,61.105,426.302,61.092z"/>
	<path fill="#FFFFFF" d="M186.357,57.901c0.04,1.984-1.386,3.505-3.353,3.577c-2.004,0.073-3.52-1.31-3.613-3.294
		c-0.097-2.082,1.417-3.72,3.45-3.732C184.777,54.439,186.318,55.951,186.357,57.901z"/>
	<path fill="#FFFFFF" d="M503.066,515.078c0.023,1.958-1.443,3.503-3.383,3.563c-2.012,0.063-3.682-1.581-3.637-3.578
		c0.044-1.93,1.587-3.429,3.531-3.428C501.52,511.635,503.042,513.138,503.066,515.078z"/>
	<path fill="#FFFFFF" d="M117.203,511.635c1.967,0.03,3.432,1.519,3.435,3.489c0.003,1.954-1.499,3.504-3.419,3.526
		c-2.039,0.024-3.591-1.57-3.541-3.64C113.726,513.041,115.226,511.604,117.203,511.635z"/>
	<path fill="#FFFFFF" d="M68.592,518.657c-1.939-0.034-3.434-1.563-3.438-3.516c-0.004-2.073,1.579-3.593,3.656-3.508
		c1.954,0.08,3.369,1.619,3.316,3.607C72.076,517.191,70.524,518.69,68.592,518.657z"/>
	<path fill="#FFFFFF" d="M342.395,327.785c-0.028,1.988-1.499,3.447-3.479,3.451c-2.069,0.004-3.582-1.58-3.499-3.667
		c0.076-1.937,1.67-3.428,3.594-3.364C340.948,324.268,342.423,325.829,342.395,327.785z"/>
	<path fill="#FFFFFF" d="M440.852,263.77c-0.014,1.907-1.598,3.5-3.492,3.514c-1.938,0.014-3.471-1.496-3.507-3.455
		c-0.037-2.051,1.575-3.691,3.575-3.637C439.342,260.243,440.867,261.836,440.852,263.77z"/>
	<path fill="#FFFFFF" d="M158.615,234.421c-0.096,1.956-1.647,3.376-3.623,3.319c-2.063-0.06-3.523-1.7-3.37-3.784
		c0.145-1.962,1.699-3.291,3.717-3.179C157.3,230.886,158.711,232.456,158.615,234.421z"/>
	<path fill="#FFFFFF" d="M23.617,515.105c0.013,1.971-1.458,3.507-3.401,3.552c-1.938,0.045-3.515-1.443-3.585-3.384
		c-0.075-2.076,1.459-3.654,3.536-3.638C22.151,511.651,23.604,513.112,23.617,515.105z"/>
	<path fill="#FFFFFF" d="M147.989,201.71c-0.01,1.973-1.496,3.482-3.451,3.505c-1.942,0.023-3.489-1.478-3.532-3.429
		c-0.046-2.082,1.497-3.631,3.575-3.592C146.558,198.232,148,199.719,147.989,201.71z"/>
	<path fill="#FFFFFF" d="M358.623,11.561c-0.03,1.979-1.499,3.41-3.501,3.409c-2.009-0.001-3.472-1.427-3.499-3.414
		c-0.029-2.065,1.551-3.61,3.626-3.547C357.222,8.07,358.653,9.576,358.623,11.561z"/>
	<path fill="#FFFFFF" d="M386.415,28.88c-1.991-0.008-3.442-1.451-3.466-3.446c-0.023-2.005,1.388-3.479,3.382-3.529
		c2.079-0.053,3.645,1.497,3.603,3.565C389.893,27.442,388.401,28.888,386.415,28.88z"/>
	<path fill="#FFFFFF" d="M145.376,184.701c0.04,1.907-1.485,3.482-3.43,3.542c-1.96,0.061-3.553-1.379-3.655-3.303
		c-0.107-2.023,1.477-3.671,3.531-3.672C143.756,181.266,145.336,182.792,145.376,184.701z"/>
	<path fill="#FFFFFF" d="M211.75,35.045c-0.006,1.997-1.442,3.444-3.44,3.466c-1.991,0.022-3.497-1.414-3.548-3.383
		c-0.054-2.062,1.516-3.635,3.583-3.592C210.335,31.578,211.755,33.041,211.75,35.045z"/>
	<path fill="#FFFFFF" d="M162.624,89.244c-1.921-0.067-3.403-1.645-3.38-3.599c0.024-2.02,1.749-3.637,3.727-3.494
		c1.931,0.14,3.313,1.73,3.235,3.723C166.13,87.824,164.549,89.311,162.624,89.244z"/>
</g>
</svg>
